<svg xmlns="http://www.w3.org/2000/svg" width="25" height="25" viewBox="0 0 25 25">
  <path fill="#347CFF" fill-rule="evenodd" d="M266.987,2424 C266.965,2422.442 266.831,2420.972 266.623,2419.612 C269.639,2419.062 271.76,2418.111 271.971,2418.014 C273.15,2419.731 273.882,2421.78 273.978,2424 L266.987,2424 Z M271.969,2430.988 C271.746,2430.886 269.63,2429.939 266.623,2429.391 C266.831,2428.03 266.965,2426.559 266.987,2425 L273.978,2425 C273.882,2427.221 273.15,2429.271 271.969,2430.988 Z M264.393,2435.831 C265.281,2434.685 266.003,2432.748 266.46,2430.358 C268.74,2430.759 270.525,2431.396 271.402,2431.747 C269.674,2433.866 267.211,2435.363 264.393,2435.831 Z M262.5,2436.001 C261.515,2436.001 260.226,2433.852 259.522,2430.214 C260.47,2430.085 261.481,2430.003 262.534,2430.003 C263.564,2430.003 264.553,2430.082 265.48,2430.206 C264.776,2433.849 263.486,2436.001 262.5,2436.001 Z M253.601,2431.749 C254.478,2431.4 256.265,2430.768 258.542,2430.366 C259,2432.752 259.721,2434.687 260.608,2435.831 C257.79,2435.363 255.328,2433.867 253.601,2431.749 Z M258.013,2425 C258.036,2426.56 258.169,2428.033 258.378,2429.395 C255.372,2429.944 253.254,2430.887 253.031,2430.989 C251.851,2429.271 251.118,2427.221 251.023,2425 L258.013,2425 Z M253.029,2418.014 C253.243,2418.111 255.364,2419.057 258.379,2419.608 C258.17,2420.969 258.036,2422.441 258.013,2424 L251.023,2424 C251.118,2421.78 251.85,2419.731 253.029,2418.014 Z M260.611,2413.168 C259.722,2414.312 259,2416.249 258.542,2418.637 C256.263,2418.235 254.475,2417.603 253.599,2417.253 C255.327,2415.133 257.791,2413.636 260.611,2413.168 Z M262.5,2413.002 C263.486,2413.002 264.776,2415.154 265.48,2418.798 C264.553,2418.922 263.564,2419.001 262.534,2419.001 C261.481,2419.001 260.47,2418.919 259.522,2418.79 C260.226,2415.151 261.514,2413.002 262.5,2413.002 Z M259.01,2424 C259.032,2422.448 259.159,2421.034 259.353,2419.767 C260.344,2419.907 261.406,2420 262.518,2420 C263.617,2420 264.667,2419.909 265.648,2419.771 C265.841,2421.037 265.969,2422.45 265.991,2424 L259.01,2424 Z M259.01,2425 L265.991,2425 C265.969,2426.551 265.842,2427.965 265.648,2429.232 C264.667,2429.094 263.617,2429.003 262.518,2429.003 C261.406,2429.003 260.344,2429.096 259.353,2429.236 C259.159,2427.968 259.031,2426.553 259.01,2425 Z M271.404,2417.255 C270.528,2417.607 268.741,2418.244 266.46,2418.646 C266.003,2416.253 265.279,2414.314 264.39,2413.168 C267.211,2413.636 269.675,2415.134 271.404,2417.255 Z M274.975,2424 C274.711,2417.33 269.236,2412 262.5,2412 C255.766,2412 250.29,2417.33 250.026,2424 L250,2424 L250,2425 L250.026,2425 C250.29,2431.663 255.754,2436.987 262.479,2436.999 C262.486,2436.999 262.493,2437.002 262.5,2437.002 C262.507,2437.002 262.515,2436.999 262.522,2436.999 C269.247,2436.987 274.711,2431.663 274.975,2425 L275,2425 L275,2424 L274.975,2424 Z" transform="translate(-250 -2412)"/>
</svg>
