<svg xmlns="http://www.w3.org/2000/svg" width="19" height="25" viewBox="0 0 19 25">
  <path fill="#347CFF" fill-rule="evenodd" d="M9.5,15 C9.225,15 9,15.224 9,15.5 L9,19.5 C9,19.775 9.225,19.999 9.5,19.999 C9.776,19.999 10,19.775 10,19.5 L10,15.5 C10,15.224 9.776,15 9.5,15 Z M18,21.998 L18,22 L18,23.997 L16.029,23.997 C16.02,23.997 16.01,24 16,24 L3,24 C2.99,24 2.98,23.997 2.971,23.997 L1,23.997 L1,22 L1,21.998 L1,12 C1,10.895 1.895,10 3,10 L16,10 C17.105,10 18,10.895 18,12 L18,21.998 Z M4,6.5 C4,3.462 6.463,0.999 9.5,0.999 C12.538,0.999 15,3.462 15,6.5 L15,8.998 L4,8.998 L4,6.5 Z M19,12.198 C19,10.458 17.663,9.049 16,9.006 L16,6.5 C16,2.91 13.09,0 9.5,0 C5.91,0 3,2.91 3,6.5 L3,9.006 C1.337,9.05 0,10.458 0,12.198 L0,21.799 C0,21.867 0.016,21.931 0.02,21.998 L0,21.998 L0,24.998 L3.077,24.998 L15.924,24.998 L19,24.998 L19,21.998 L18.98,21.998 C18.984,21.931 19,21.867 19,21.799 L19,12.198 Z"/>
</svg>
