<svg xmlns="http://www.w3.org/2000/svg" width="25" height="25" viewBox="0 0 25 25">
  <path fill="#347CFF" fill-rule="evenodd" d="M21.998,8.002 L3.5,8.002 C3.224,8.002 3.001,8.226 3.001,8.502 C3.001,8.777 3.224,9.002 3.5,9.002 L21.998,9.002 L21.998,16.002 L3.5,16.002 C3.224,16.002 3.001,16.226 3.001,16.502 C3.001,16.777 3.224,17.002 3.5,17.002 L21.998,17.002 L21.998,23.215 C21.998,23.648 21.654,24.001 21.229,24.001 L1.771,24.001 C1.347,24.001 1.003,23.648 1.003,23.215 L1.003,1.786 C1.003,1.353 1.347,1.001 1.771,1.001 L21.229,1.001 C21.654,1.001 21.998,1.353 21.998,1.786 L21.998,8.002 Z M1.534,0 C0.686,0 0,0.7 0,1.563 L0,23.438 C0,24.302 0.686,25 1.534,25 L21.467,25 C22.313,25 23,24.302 23,23.438 L23,1.563 C23,0.7 22.313,0 21.467,0 L1.534,0 Z M18.995,22 C19.548,22 19.996,21.553 19.996,21.001 L19.996,20 C19.996,19.447 19.548,19 18.995,19 L17.993,19 C17.44,19 16.992,19.447 16.992,20 L16.992,21.001 C16.992,21.553 17.44,22 17.993,22 L18.995,22 Z M17.993,3 C17.44,3 16.992,3.449 16.992,4 L16.992,5 C16.992,5.553 17.44,6 17.993,6 L18.995,6 C19.548,6 19.996,5.553 19.996,5 L19.996,4 C19.996,3.449 19.548,3 18.995,3 L17.993,3 Z M18.995,14 C19.548,14 19.996,13.553 19.996,13.001 L19.996,12 C19.996,11.447 19.548,11 18.995,11 L17.993,11 C17.44,11 16.992,11.447 16.992,12 L16.992,13.001 C16.992,13.553 17.44,14 17.993,14 L18.995,14 Z"/>
</svg>
