<?xml version="1.0" standalone="no"?>
<!DOCTYPE svg PUBLIC "-//W3C//DTD SVG 20010904//EN"
 "http://www.w3.org/TR/2001/REC-SVG-20010904/DTD/svg10.dtd">
<svg version="1.0" xmlns="http://www.w3.org/2000/svg"
 width="1043.353786pt" height="746.489502pt" viewBox="0 0 1043.353786 746.489502"
 preserveAspectRatio="xMidYMid meet">
<metadata>
Created by potrace 1.12, written by Peter Selinger 2001-2015
</metadata>
<g transform="translate(-333.480346,859.080164) scale(0.100000,-0.100000)"
fill="#000000" stroke="none">
<path d="M10895 8579 c-66 -3 -168 -7 -227 -8 l-108 -1 0 -32 c0 -18 -5 -40
-10 -48 -7 -11 -10 -11 -10 -2 0 7 -4 10 -10 7 -5 -3 -10 -1 -10 5 0 6 -4 8
-10 5 -5 -3 -10 1 -10 10 0 9 4 14 8 11 4 -2 14 -1 22 5 13 7 13 9 0 10 -10 0
-9 3 5 9 13 6 -20 9 -95 8 -70 -1 -118 -5 -123 -12 -6 -8 -10 -7 -14 2 -4 10
-60 13 -264 11 -238 -1 -258 -3 -247 -18 7 -9 18 -19 23 -23 6 -4 6 -8 2 -8
-4 0 -21 10 -38 22 -29 22 -31 22 -60 6 -32 -19 -40 -13 -11 8 16 12 15 13 -5
14 -14 0 -23 -6 -23 -15 0 -9 -9 -15 -22 -14 -17 1 -19 2 -5 6 29 8 19 20 -12
15 -30 -4 -46 -24 -35 -45 3 -7 0 -5 -8 4 -7 9 -20 18 -28 22 -10 4 -8 6 8 6
12 1 22 6 22 12 0 5 -4 8 -9 5 -5 -4 -72 -2 -149 4 -242 17 -407 12 -607 -18
l-180 -27 -5 -47 c-7 -57 -22 -77 -44 -59 -10 8 -16 9 -21 1 -3 -5 -1 -10 4
-10 6 0 11 -5 11 -11 0 -8 -4 -8 -14 0 -15 13 -138 -4 -981 -129 -181 -27
-357 -53 -390 -57 l-59 -8 -19 -50 c-11 -28 -43 -120 -73 -205 -29 -85 -92
-265 -139 -400 -98 -278 -362 -1033 -436 -1248 -27 -78 -49 -147 -49 -152 0
-5 7 -7 16 -3 12 4 14 0 9 -19 -5 -21 0 -27 40 -48 26 -13 51 -32 56 -41 5
-10 18 -21 29 -24 11 -4 18 -11 14 -16 -3 -6 5 -7 20 -3 21 5 25 3 20 -10 -8
-20 -41 -21 -60 -2 -8 8 -23 12 -36 8 l-22 -5 23 -9 c19 -7 21 -11 11 -22 -15
-20 22 -40 60 -33 15 3 32 1 38 -5 11 -11 53 -19 98 -18 13 0 24 -8 27 -20 3
-11 13 -20 23 -20 11 0 3 -8 -20 -19 -43 -23 -9 -27 -401 49 -393 75 -681 118
-696 102 -4 -4 -9 -24 -12 -44 -6 -42 -6 -41 108 -54 193 -20 591 -97 613
-119 10 -9 12 -28 5 -81 -7 -61 -11 -70 -35 -82 -16 -7 -28 -21 -28 -32 0 -33
-20 -33 -89 -1 -59 27 -76 30 -139 28 -59 -2 -76 -7 -97 -27 -32 -30 -33 -45
-1 -25 l24 16 -16 -44 c-9 -25 -21 -43 -27 -40 -7 2 -16 -6 -22 -19 -10 -20
-7 -27 24 -53 l35 -31 -46 -92 c-41 -81 -49 -92 -72 -92 -39 0 -106 21 -134
43 -19 14 -25 15 -28 5 -3 -7 -14 -20 -25 -29 -17 -14 -21 -29 -23 -88 -1 -58
-6 -76 -23 -95 -11 -12 -21 -31 -21 -42 0 -10 -9 -25 -20 -32 -11 -7 -20 -23
-20 -36 0 -40 -73 -86 -138 -86 -72 0 -256 -30 -281 -46 -13 -9 -33 -38 -44
-65 -14 -34 -27 -49 -39 -49 -11 0 -38 -9 -60 -20 -23 -11 -48 -20 -56 -20 -8
0 -25 -9 -38 -19 -20 -16 -28 -17 -49 -8 -14 7 -23 18 -20 25 3 8 5 18 5 23 0
5 13 9 28 9 41 0 71 36 65 78 -6 36 -34 49 -81 37 -63 -15 -75 -12 -84 23 l-9
34 -72 -3 c-40 -1 -94 -11 -120 -21 -46 -17 -86 -13 -80 9 3 8 -169 7 -224 -2
-49 -9 -40 -25 13 -25 27 0 43 -4 39 -10 -10 -16 -136 -12 -154 4 -20 18 -77
10 -62 -8 7 -9 0 -13 -26 -14 -21 -2 -42 -7 -48 -12 -6 -5 -27 -5 -50 0 -44
10 -96 4 -135 -15 -14 -7 -39 -10 -57 -8 -45 7 -99 -14 -123 -47 -12 -17 -33
-30 -53 -34 -47 -9 -74 -31 -82 -67 -9 -40 0 -47 28 -23 45 41 74 54 86 41 7
-10 0 -20 -27 -42 -224 -178 -308 -382 -336 -810 -14 -227 71 -624 181 -839
44 -87 131 -204 192 -260 19 -17 41 -38 50 -47 25 -25 156 -96 190 -104 46
-10 26 -28 -23 -20 l-41 6 25 -21 c33 -28 83 -50 114 -50 13 0 48 -11 78 -25
43 -20 69 -25 136 -25 46 0 93 -5 105 -11 13 -8 118 -13 297 -16 271 -4 385 3
473 29 l39 12 -24 18 c-13 9 -30 18 -39 18 -8 0 -30 11 -48 24 -19 14 -46 28
-62 31 -16 4 -29 10 -29 13 0 14 87 53 104 46 29 -11 106 25 127 60 11 18 40
41 71 56 54 26 66 44 82 130 3 15 18 32 39 43 43 24 55 50 64 140 5 63 10 75
37 101 29 27 31 33 32 105 1 42 2 84 3 93 2 35 74 53 351 89 47 6 106 15 132
19 28 6 58 6 75 0 27 -9 124 -19 191 -20 17 0 32 -4 32 -10 0 -21 -47 -32
-148 -34 -59 -2 -120 -8 -135 -14 -27 -11 -28 -14 -25 -74 l3 -62 230 -62
c414 -114 457 -125 462 -121 10 11 6 48 -11 99 -17 49 -17 57 -4 82 12 24 16
26 21 12 4 -10 3 -15 -3 -11 -6 3 -10 1 -10 -4 0 -6 5 -11 10 -11 6 0 10 -7
10 -15 0 -8 7 -15 15 -15 8 0 15 8 15 18 0 9 6 29 14 44 13 24 12 27 -2 31
-13 4 -13 5 3 6 12 1 27 15 37 36 15 29 16 44 7 87 -15 79 20 192 36 118 7
-30 -9 -65 -24 -55 -11 6 0 -59 11 -66 10 -7 -6 -69 -41 -156 -22 -55 -68
-217 -70 -243 0 -8 -2 -26 -5 -40 -19 -114 -28 -245 -21 -324 5 -50 10 -109
12 -131 9 -117 90 -372 157 -498 40 -75 113 -189 168 -262 12 -16 15 -24 6
-17 -13 10 -18 8 -32 -13 -18 -28 -13 -47 23 -79 21 -19 22 -19 44 2 13 12 27
22 31 22 14 0 136 -103 136 -114 0 -6 -4 -26 -10 -44 -8 -30 -6 -37 17 -58 35
-32 66 -31 83 4 8 15 16 29 17 31 4 6 113 -52 113 -60 0 -4 -18 -18 -40 -30
-45 -26 -43 -39 6 -39 24 0 47 -10 72 -29 44 -34 63 -39 165 -42 59 -2 89 -8
124 -26 38 -19 62 -23 137 -23 50 0 129 -5 176 -12 47 -6 108 -12 135 -12 51
-1 211 45 315 89 30 13 69 27 85 31 49 11 60 25 33 40 -13 8 -17 13 -10 14 18
0 15 20 -4 20 -31 0 -2 19 69 45 137 51 159 63 152 85 -7 23 6 26 34 8 23 -14
61 0 122 44 30 22 40 35 36 49 -3 10 -1 19 4 19 5 0 16 12 26 26 13 21 14 30
5 45 -16 25 0 24 23 -1 10 -11 24 -20 32 -20 7 0 38 24 69 54 55 53 56 54 49
99 -4 28 -3 47 4 51 6 4 11 16 11 27 0 15 7 19 30 19 23 0 33 6 40 25 5 14 15
24 21 23 6 -2 14 3 17 11 3 8 0 11 -7 7 -23 -15 -10 12 14 28 28 19 33 56 10
80 -9 8 -15 19 -14 23 4 22 -3 33 -21 33 -17 0 -18 3 -8 25 6 14 15 25 19 25
5 0 6 6 3 14 -5 12 0 13 29 4 33 -10 37 -9 65 23 19 22 33 50 37 77 5 37 3 48
-20 78 -15 20 -24 38 -21 41 5 6 146 32 286 54 36 5 108 13 161 16 91 5 101 4
232 -36 76 -22 147 -41 160 -41 12 0 94 11 182 25 293 47 419 66 570 86 178
24 214 32 248 59 14 11 29 20 35 20 11 0 92 -118 92 -135 0 -7 -9 -20 -20 -30
-25 -23 -25 -25 6 -58 24 -26 27 -27 43 -13 29 26 53 18 109 -35 28 -28 52
-53 52 -55 0 -3 -7 -19 -16 -35 -14 -28 -14 -32 2 -50 29 -32 53 -33 82 -6
l27 26 63 -36 c54 -30 62 -39 62 -65 0 -17 -4 -27 -10 -23 -15 10 1 -28 18
-42 9 -7 13 -16 9 -19 -4 -4 -13 -1 -22 6 -12 10 -15 10 -15 -4 0 -13 -5 -16
-20 -11 -11 3 -20 2 -20 -3 0 -13 27 -23 45 -16 8 4 15 2 15 -3 0 -34 212 -64
484 -68 259 -5 314 2 478 59 98 34 135 57 103 64 -8 2 -15 8 -15 13 0 13 69
45 113 53 21 4 47 16 58 27 13 13 27 17 43 13 24 -6 126 38 126 55 0 17 83 92
97 87 16 -6 55 13 91 43 14 13 22 30 22 52 0 41 45 109 72 109 27 0 75 36 92
69 12 22 12 30 0 51 -18 34 -17 47 7 97 13 26 28 43 38 43 22 0 56 36 71 74
14 37 -7 72 -58 93 -36 16 -36 16 -12 23 18 4 28 16 36 45 6 21 17 41 25 43
52 16 88 103 54 128 -65 48 -70 57 -67 118 3 45 8 59 21 63 24 6 47 52 43 85
-2 21 -13 32 -47 47 -33 14 -45 27 -53 52 -20 67 -22 97 -6 110 29 24 36 49
24 79 -9 23 -18 28 -45 28 -42 0 -50 5 -79 50 -30 48 -38 102 -20 127 18 24
17 45 -1 69 -12 16 -19 18 -37 8 -13 -6 -40 -13 -60 -17 -33 -5 -40 -2 -73 32
-23 24 -33 42 -29 52 4 9 10 38 15 66 7 43 6 53 -11 69 -18 18 -20 18 -44 3
-34 -23 -76 -69 -76 -85 0 -7 -12 -17 -27 -23 -20 -7 -23 -13 -15 -21 7 -7 12
-16 12 -21 0 -5 -13 5 -30 23 -16 18 -30 34 -30 37 0 2 -7 11 -15 20 -11 11
-14 25 -9 47 3 17 8 47 10 66 2 19 7 49 10 67 5 28 3 34 -20 44 -24 11 -29 9
-61 -24 -19 -20 -35 -40 -35 -45 0 -5 -7 -15 -15 -22 -12 -10 -20 -8 -41 9
-15 12 -35 21 -46 21 -11 0 -28 5 -38 10 -15 8 -17 15 -11 33 13 33 17 80 8
95 -5 6 -20 12 -35 11 l-27 -1 28 -11 c37 -15 35 -29 -3 -15 -22 7 -34 7 -44
-1 -7 -6 -15 -9 -18 -6 -3 3 -11 -1 -18 -10 -9 -11 -17 -12 -31 -4 -11 5 -33
12 -49 14 -51 6 -70 16 -70 36 0 15 -8 19 -40 21 -22 1 -48 2 -57 2 -10 1 -19
-7 -21 -16 -2 -12 3 -18 14 -18 10 0 15 -3 11 -6 -10 -11 -57 6 -54 19 1 8
-19 13 -68 15 -38 2 -75 8 -81 13 -8 6 -14 6 -18 1 -3 -6 -39 -13 -78 -17 -83
-8 -274 -41 -289 -50 -5 -4 -9 -12 -9 -20 0 -22 -22 -29 -35 -11 -20 27 -99 3
-145 -44 -20 -21 -42 -39 -50 -42 -8 -2 -10 -11 -6 -26 4 -12 12 -20 17 -17 5
4 9 2 9 -4 0 -23 -24 -21 -50 4 -23 22 -32 26 -43 17 -11 -9 -18 -5 -35 18
-12 16 -22 34 -22 41 0 6 -6 23 -14 37 -38 74 -57 124 -52 137 3 8 -7 38 -23
67 -15 29 -40 83 -56 121 -15 37 -31 67 -35 67 -3 0 -26 -14 -51 -31 l-44 -31
31 30 c18 16 40 35 50 40 18 11 18 12 -1 32 -12 11 -41 24 -65 28 -42 7 -45 9
-67 66 -28 73 -45 93 -105 119 -26 11 -50 29 -53 39 -11 34 -55 58 -105 58
-39 0 -56 -7 -102 -40 -50 -35 -57 -38 -74 -25 -11 8 -27 15 -36 15 -16 0 -18
13 -18 135 l0 135 24 0 c39 0 56 11 56 35 l0 22 313 7 c171 4 322 9 335 13 19
5 22 11 22 59 l0 54 -117 -5 -118 -5 65 19 c36 11 61 20 56 20 -5 1 -3 8 4 17
11 13 10 16 -8 21 -26 6 -28 18 -6 27 15 6 16 26 10 189 -3 100 -8 207 -11
237 -3 30 -10 168 -15 305 -6 138 -15 340 -20 450 -11 205 -42 845 -60 1220
-5 116 -14 287 -20 380 -5 94 -10 183 -10 198 l0 28 -102 -3 c-57 -1 -157 -5
-223 -9z m-1848 -226 c-2 -38 -3 -7 -3 67 0 74 1 105 3 68 2 -38 2 -98 0 -135z
m1002 181 c2 -2 -43 -4 -102 -4 -58 0 -108 4 -111 9 -5 8 204 3 213 -5z m371
12 c0 -9 -40 -13 -46 -5 -3 5 6 9 20 9 14 0 26 -2 26 -4z m-10 -61 c0 -9 7
-23 15 -31 31 -31 17 -87 -28 -111 -29 -15 -32 -14 -49 7 -10 12 -16 26 -13
30 3 4 -2 24 -10 44 -9 20 -13 41 -10 47 4 6 -75 8 -219 7 -206 -3 -249 -7
-213 -21 17 -7 -11 -27 -29 -20 -15 5 -34 -27 -34 -57 0 -12 -4 -18 -10 -15
-5 3 -10 15 -10 25 0 25 -17 35 -35 20 -11 -9 -13 -5 -9 27 3 21 8 41 12 45 7
7 94 11 445 16 177 3 197 2 197 -13z m140 -70 c0 -38 -4 -55 -15 -59 -12 -4
-15 4 -15 45 0 31 -4 48 -10 44 -6 -4 -7 -12 -4 -18 5 -9 4 -9 -6 0 -14 13 -6
48 10 38 5 -3 10 -2 10 4 0 6 7 8 15 5 11 -4 15 -21 15 -59z m-523 10 c-12 -7
-26 -8 -31 -4 -5 4 -19 3 -32 -3 -17 -8 -27 -8 -39 2 -23 19 -11 27 47 29 28
1 54 4 57 6 2 3 8 0 12 -7 5 -7 -1 -16 -14 -23z m233 11 c0 -33 -9 -37 -41
-20 -44 22 -39 40 11 42 25 1 30 -3 30 -22z m-134 -2 c-3 -8 1 -14 9 -14 8 0
15 -4 15 -10 0 -5 -15 -10 -32 -10 -25 0 -29 -3 -18 -10 8 -5 29 -10 46 -10
36 0 117 -33 107 -43 -3 -4 -16 -4 -29 -1 -12 3 -32 1 -43 -6 -17 -8 -21 -8
-19 2 2 7 -3 12 -9 11 -7 -2 -13 3 -13 11 0 16 -53 31 -70 21 -5 -3 -10 -2
-10 4 0 5 6 12 13 14 6 3 2 6 -10 6 -28 1 -31 21 -3 21 11 0 20 6 20 13 0 6
12 13 26 13 18 2 24 -2 20 -12z m-236 -31 c0 -17 -18 -16 -35 1 -12 12 -11 14
10 12 14 0 25 -7 25 -13z m135 -13 c19 -8 19 -9 -2 -9 -12 -1 -25 4 -28 9 -7
12 2 12 30 0z m205 0 c12 -8 9 -10 -12 -10 -16 0 -28 5 -28 10 0 13 20 13 40
0z m245 -10 c7 0 16 6 18 13 3 6 6 -1 6 -18 1 -23 -2 -26 -9 -15 -8 12 -10 11
-10 -7 0 -16 4 -21 15 -17 12 5 15 -3 15 -37 l0 -44 -68 0 c-39 0 -71 5 -77
12 -13 15 -42 19 -81 9 -19 -4 -43 -1 -65 8 l-34 14 28 7 c15 4 45 4 65 1 20
-4 61 -8 90 -9 47 -2 57 2 53 26 0 4 4 7 9 7 6 0 10 6 9 13 -2 19 14 63 19 49
2 -6 10 -12 17 -12z m-597 -21 c18 -29 8 -35 -17 -10 -24 24 -26 31 -8 31 7 0
18 -9 25 -21z m-307 -54 c15 5 19 2 19 -17 0 -13 -4 -29 -9 -37 -5 -8 -6 -24
-1 -35 10 -28 -4 -109 -15 -83 -4 10 -5 31 -1 47 3 17 1 30 -4 30 -6 0 -10
-13 -10 -30 0 -16 -4 -30 -10 -30 -12 0 -13 142 -2 180 l7 25 3 -28 c3 -22 7
-27 23 -22z m982 -63 c-5 -38 -7 -40 -19 -25 -17 23 -18 120 -1 126 16 5 27
-47 20 -101z m-1914 66 c-1 -31 -1 -31 -8 -8 -5 14 -6 28 -4 33 9 15 13 6 12
-25z m408 -90 c-2 -13 -4 -3 -4 22 0 25 2 35 4 23 2 -13 2 -33 0 -45z m1031
17 c-6 -14 -15 -25 -20 -25 -5 0 -1 11 8 25 9 14 18 25 20 25 2 0 -2 -11 -8
-25z m-444 -132 c-4 -99 -4 -99 -14 -83 -8 12 -10 10 -10 -9 0 -28 -15 -18
-23 14 -3 11 -6 -2 -7 -30 l-2 -50 -13 35 -13 35 -1 -44 c-1 -72 -12 -40 -18
52 -3 55 -1 87 6 92 6 3 11 -2 11 -12 0 -14 2 -15 9 -4 5 7 14 10 20 7 7 -5
11 1 11 13 0 12 3 21 8 21 4 0 7 -23 7 -50 0 -27 3 -50 8 -50 4 0 7 25 7 55 0
30 4 55 8 55 4 0 7 -21 6 -47z m802 21 c17 -14 17 -15 1 -10 -10 3 -28 6 -40
6 -18 0 -19 2 -7 10 20 13 23 13 46 -6z m-1399 -276 c-1 -51 -3 -12 -3 87 0
99 2 141 3 93 2 -48 2 -129 0 -180z m708 202 c4 -6 10 -8 15 -5 5 3 11 1 15
-5 3 -5 2 -10 -3 -10 -5 0 -7 -11 -4 -25 8 -45 -20 -105 -49 -105 -18 0 -9 38
11 43 14 3 20 14 20 32 0 21 -4 26 -22 23 -24 -3 -35 19 -24 48 6 16 32 19 41
4z m749 -52 c-18 -37 -63 -88 -77 -88 -5 0 8 19 27 42 20 23 42 57 49 76 7 20
13 28 15 19 2 -9 -4 -31 -14 -49z m59 -40 l-1 -63 -38 -3 -39 -3 28 21 c15 12
27 30 27 40 0 15 19 70 24 70 1 0 0 -28 -1 -62z m-708 32 c16 -18 16 -20 2
-20 -10 0 -17 -4 -17 -9 0 -6 38 -8 88 -7 88 3 112 0 112 -14 0 -4 -47 -8
-105 -9 -58 -1 -112 -4 -119 -7 -9 -4 -13 3 -13 20 0 14 3 26 8 26 5 0 9 9 9
20 0 11 4 20 8 20 5 0 17 -9 27 -20z m-1247 -65 c1 -1 -13 -161 -32 -356 -20
-195 -40 -410 -46 -479 -13 -156 -39 -395 -46 -435 -4 -21 -12 -31 -25 -32
-20 -2 -26 12 -9 22 23 14 7 22 -33 18 -24 -3 -72 -1 -108 5 -36 5 -86 8 -112
5 l-47 -6 0 -82 c0 -138 11 -236 28 -242 8 -4 19 1 24 10 11 20 38 23 38 4 0
-7 -5 -18 -12 -25 -9 -9 -6 -13 12 -20 30 -11 54 -5 74 17 13 14 14 23 4 48
-14 38 -5 63 24 63 21 0 23 -4 23 -60 0 -33 -3 -60 -7 -60 -5 0 -8 -7 -8 -16
0 -33 23 -6 45 52 12 33 32 79 44 103 14 27 20 52 17 69 -6 25 7 62 17 52 3
-3 -1 -66 -9 -140 -7 -74 -18 -196 -24 -270 -7 -74 -14 -138 -16 -141 -2 -4
-21 -3 -41 1 -21 5 -40 5 -43 0 -6 -10 -96 -26 -127 -22 -12 1 -24 -2 -28 -8
-5 -8 -11 -7 -21 1 -11 9 -21 9 -39 1 -21 -10 -25 -19 -26 -54 -2 -59 -2 -60
-20 -85 -18 -26 -34 -28 -141 -18 -53 6 -78 5 -78 -3 0 -12 -240 -5 -253 8
-11 10 12 47 33 54 8 3 22 9 30 13 13 5 13 4 2 -9 -8 -10 -9 -19 -3 -22 5 -4
12 -2 16 3 3 6 12 8 19 5 10 -4 16 7 21 36 7 41 0 64 -13 44 -4 -6 -28 -14
-54 -18 -27 -4 -49 -10 -49 -14 -1 -4 -3 -18 -4 -32 -1 -13 -8 -26 -14 -28 -7
-2 -20 -12 -30 -23 -16 -17 -21 -18 -77 -5 -32 8 -71 17 -86 20 -20 5 -28 13
-28 27 0 28 -206 231 -297 293 -60 41 -80 49 -114 48 -23 -1 -53 -11 -69 -22
-24 -17 -28 -26 -26 -58 3 -39 31 -92 48 -92 5 0 7 9 3 19 -6 20 23 91 37 91
5 0 22 -7 38 -15 30 -15 40 -48 20 -60 -16 -10 -12 -42 6 -49 9 -3 37 -6 64
-6 47 0 49 -1 129 -86 105 -111 108 -143 11 -109 -160 57 -331 180 -374 269
-21 46 -21 108 2 136 19 23 73 31 118 16 17 -5 24 2 44 51 75 186 267 647 290
698 15 33 44 98 65 145 20 47 46 103 56 126 11 22 19 46 19 54 0 7 15 45 33
84 19 39 40 89 47 111 7 22 18 54 25 70 53 122 115 290 111 301 -2 6 -2 14 1
17 5 6 945 -2 951 -8z m1567 -36 c31 -28 127 -69 161 -69 17 0 53 11 79 25 26
14 49 24 50 23 1 -2 5 -374 9 -828 5 -731 4 -823 -9 -806 -8 11 -15 24 -15 28
0 5 -10 3 -22 -3 -12 -6 -76 -17 -142 -23 -108 -10 -121 -13 -121 -30 0 -11
-6 -21 -12 -23 -7 -3 -13 2 -13 11 0 10 -13 17 -37 21 -21 3 -46 8 -55 10 -11
2 -18 -3 -18 -11 0 -17 39 -34 78 -35 l27 0 -25 -10 c-27 -11 -63 2 -90 32
-12 14 -24 16 -70 9 -30 -4 -100 -11 -155 -15 -55 -4 -95 -10 -89 -12 8 -3 10
-43 7 -131 -3 -70 -7 -129 -9 -131 -2 -2 -4 47 -4 110 0 63 -4 120 -9 127 -6
10 -31 13 -95 11 -94 -3 -111 -13 -41 -23 24 -4 48 -12 51 -18 15 -23 -4 -430
-20 -440 -6 -4 6 -8 27 -8 25 0 37 -5 37 -14 0 -16 -30 -26 -82 -26 -39 0 -46
8 -26 28 9 9 3 12 -30 12 -23 0 -42 4 -42 9 0 10 48 21 91 21 26 0 29 3 29 34
0 19 -5 38 -11 42 -8 5 -10 44 -6 131 2 67 1 125 -3 128 -5 3 -74 0 -154 -7
-80 -6 -148 -9 -150 -7 -9 8 -8 67 3 364 10 291 19 477 46 982 8 149 15 314
15 366 0 59 4 98 11 103 6 3 79 9 161 12 l151 5 -6 -24 c-3 -13 -11 -50 -17
-81 -7 -38 -16 -58 -26 -58 -8 0 -14 5 -14 11 0 5 -4 7 -10 4 -5 -3 -10 -10
-10 -15 0 -14 46 -23 62 -14 7 5 92 10 188 10 189 2 339 10 348 19 3 3 27 5
54 5 33 0 48 4 48 13 0 11 -13 12 -62 6 -35 -4 -150 -10 -257 -12 l-194 -5 6
50 c4 28 11 56 17 63 17 20 101 35 200 35 61 0 93 4 102 13 28 29 65 31 93 6z
m724 -49 c0 -23 -1 -23 -9 -5 -5 11 -9 29 -9 40 -1 17 1 17 9 5 5 -8 9 -26 9
-40z m-1176 -10 c-3 -11 -9 -20 -14 -20 -11 0 -11 3 -3 24 9 23 23 20 17 -4z
m1204 -97 c6 -17 7 -35 3 -40 -5 -4 -4 -33 1 -63 8 -49 22 -188 34 -339 3 -30
9 -80 15 -110 12 -69 14 -141 6 -202 -5 -35 -3 -51 9 -62 8 -9 15 -31 15 -49
0 -18 5 -51 10 -73 5 -22 12 -80 16 -130 9 -126 9 -130 18 -143 4 -7 5 -16 2
-21 -4 -5 -2 -40 3 -78 5 -37 6 -86 1 -108 -4 -22 -8 -31 -9 -20 -1 11 -6 61
-12 110 -5 50 -11 110 -13 135 -10 123 -38 357 -45 370 -5 8 -9 62 -10 120 -3
113 -4 126 -14 210 -4 30 -10 78 -12 105 -3 28 -10 100 -16 160 -6 61 -13 134
-14 164 -2 30 -6 73 -9 95 -6 42 1 32 21 -31z m-1890 -395 c-1 -62 -3 -12 -3
112 0 124 2 174 3 113 2 -62 2 -164 0 -225z m-10 -550 c-1 -68 -3 -13 -3 122
0 135 2 190 3 123 2 -68 2 -178 0 -245z m-653 -223 c-4 -8 -10 -15 -15 -15 -5
0 -9 7 -9 15 0 8 7 15 15 15 9 0 12 -6 9 -15z m643 -282 c-2 -16 -4 -3 -4 27
0 30 2 43 4 28 2 -16 2 -40 0 -55z m-2199 -50 c-5 -34 6 -84 27 -137 6 -13 5
-17 -2 -13 -32 20 -16 -63 20 -102 49 -55 54 -67 15 -38 -21 15 -38 23 -38 17
0 -6 -4 -8 -10 -5 -5 3 -10 15 -10 26 0 11 -4 17 -10 14 -5 -3 -18 -1 -27 4
-17 10 -17 10 0 11 23 0 22 7 -9 75 -31 67 -29 123 7 161 32 34 42 30 37 -13z
m3633 -28 c-1 -15 -24 -12 -29 3 -3 9 2 13 12 10 10 -1 17 -7 17 -13z m-25
-65 c39 -15 30 -33 -12 -25 -53 9 -84 23 -84 36 0 12 50 6 96 -11z m17 -71
c42 -2 -99 -28 -190 -35 -79 -6 -93 -4 -93 8 0 12 24 17 118 25 64 5 123 8
130 6 8 -2 23 -3 35 -4z m-673 -30 c0 -7 41 -8 136 -3 l137 7 -8 -29 c-5 -16
-8 -41 -7 -55 1 -29 4 -29 -211 -45 l-89 -7 3 41 c2 23 0 44 -4 48 -12 12 -8
24 8 24 8 0 14 3 14 8 -3 14 1 22 11 22 6 0 10 -5 10 -11z m588 -29 c17 0 32
-3 32 -9 0 -5 10 -12 23 -16 22 -6 22 -7 -4 -14 -14 -5 -74 -12 -132 -16
l-107 -7 0 30 c0 28 3 31 38 35 20 3 55 3 77 0 22 -2 55 -4 73 -3z m-3308
-104 c53 -31 79 -52 68 -54 -37 -7 -198 90 -198 119 0 12 19 2 130 -65z m1370
48 c0 -7 -8 -10 -21 -7 -11 3 -31 1 -45 -6 -13 -6 -34 -16 -47 -22 -41 -19
-97 17 -70 45 13 13 183 4 183 -10z m2028 -26 c-6 -18 -28 -21 -28 -4 0 9 7
16 16 16 9 0 14 -5 12 -12z m-742 -55 c-11 -11 -19 6 -11 24 8 17 8 17 12 0 3
-10 2 -21 -1 -24z m-2751 7 c11 -12 13 -20 6 -20 -7 0 -9 -5 -6 -10 4 -6 15
-8 26 -5 12 4 36 -3 62 -18 37 -22 157 -61 250 -81 18 -4 27 -13 27 -26 0 -16
7 -20 34 -20 31 0 74 -25 62 -37 -5 -5 -65 12 -103 30 -24 11 -91 3 -106 -12
-5 -5 -12 -31 -14 -58 -4 -43 0 -54 36 -107 23 -32 41 -62 41 -67 0 -4 26 -17
58 -29 31 -11 62 -27 67 -33 6 -7 43 -33 84 -57 89 -55 104 -64 172 -115 114
-85 304 -212 330 -220 23 -8 24 -7 33 20 4 15 -2 24 -25 38 -30 17 -31 19 -25
68 4 27 12 67 19 87 11 32 16 37 42 35 28 -2 26 0 -32 55 -71 67 -88 108 -80
193 3 34 1 57 -4 53 -5 -3 -9 0 -9 6 0 7 6 10 14 7 8 -3 22 3 31 13 10 11 31
24 49 29 39 13 274 41 344 41 l53 0 -3 -31 c-3 -28 -7 -32 -38 -35 -117 -11
-161 -16 -213 -26 -32 -6 -56 -13 -53 -15 4 -5 253 15 277 23 12 3 15 -4 15
-36 l-1 -40 -50 6 c-27 4 -53 12 -57 18 -6 8 -8 8 -8 0 0 -8 -15 -9 -47 -4
-27 4 -75 9 -108 11 l-60 4 -3 -63 -3 -63 69 -72 c38 -40 74 -82 81 -94 6 -12
36 -31 71 -45 33 -12 62 -30 65 -38 3 -8 22 -25 42 -36 21 -12 110 -75 198
-141 201 -150 212 -156 315 -183 47 -12 87 -23 89 -26 2 -2 -26 -4 -63 -4 -82
0 -236 44 -236 67 0 9 -6 13 -14 10 -18 -7 -58 21 -50 35 4 7 2 8 -4 4 -13 -8
-53 18 -206 132 l-100 74 -19 -39 c-27 -54 -40 -62 -90 -53 -23 5 -43 8 -43 7
-1 -1 -4 -12 -8 -23 -6 -19 -3 -21 19 -16 14 2 25 0 25 -6 0 -6 -22 -9 -55 -7
-30 2 -55 2 -55 2 0 -1 4 -28 10 -61 8 -52 7 -62 -10 -86 -11 -15 -17 -30 -13
-34 3 -3 -1 -6 -11 -6 -9 0 -14 -4 -11 -10 3 -5 15 -10 25 -10 10 0 22 -5 25
-11 4 -6 -2 -9 -17 -8 -47 4 -65 -2 -76 -25 -10 -22 -8 -24 25 -31 32 -6 39
-2 91 46 32 29 59 54 60 55 2 1 -15 22 -37 47 -22 24 -38 47 -34 50 17 18 46
3 75 -38 30 -42 33 -44 52 -30 12 8 35 21 51 29 17 7 41 25 54 40 36 39 50 34
44 -16 -3 -24 -12 -54 -20 -66 -12 -20 -20 -23 -50 -17 -24 4 -42 1 -60 -10
-17 -12 -28 -14 -36 -6 -7 7 -22 -3 -48 -32 -42 -46 -46 -59 -25 -76 11 -9 16
-9 21 0 6 8 10 8 16 -2 11 -18 -21 -40 -43 -28 -20 11 -34 12 -25 2 12 -11
-35 -53 -60 -53 -16 0 -23 -6 -23 -20 0 -11 -8 -24 -17 -27 -9 -4 -25 -15 -35
-25 -10 -10 -25 -18 -33 -18 -7 0 -19 -8 -24 -17 -9 -15 -10 -13 -11 12 0 24
13 44 60 92 33 34 60 66 60 71 0 17 -28 21 -40 6 -7 -8 -19 -14 -26 -14 -8 0
-14 -6 -14 -14 0 -7 -6 -19 -14 -25 -8 -7 -18 -27 -22 -44 -3 -18 -11 -38 -17
-46 -12 -14 -37 -79 -37 -95 0 -6 9 0 21 12 26 28 40 20 35 -21 -7 -51 -16
-68 -36 -62 -11 3 -20 0 -24 -10 -3 -8 -11 -15 -17 -15 -8 0 -9 16 -5 53 6 42
4 56 -8 67 -9 7 -16 11 -17 9 0 -2 -2 -13 -3 -24 -2 -11 -11 -49 -21 -85 -13
-45 -19 -100 -19 -180 -1 -89 -4 -118 -16 -128 -13 -12 -13 -13 3 -8 10 3 55
6 100 6 45 0 88 4 95 8 9 6 13 42 13 128 0 77 5 130 14 152 15 35 75 125 88
130 4 2 7 9 7 17 0 7 7 18 15 25 12 10 16 8 23 -10 8 -21 9 -21 34 12 14 18
27 42 29 53 3 11 9 18 14 15 6 -3 9 -8 7 -12 -1 -5 2 -8 8 -8 10 0 14 15 11
34 -1 5 7 15 19 23 11 8 20 19 20 25 0 6 10 21 23 33 36 37 47 53 47 70 0 8 5
16 10 16 6 1 14 2 20 3 5 0 19 9 30 19 12 10 25 15 30 12 4 -3 24 13 43 36 19
24 51 48 73 56 61 23 69 21 66 -8 -2 -21 6 -34 38 -59 22 -17 40 -37 40 -43 0
-6 -10 -1 -22 10 -13 11 -37 28 -55 38 -26 15 -34 16 -47 6 -19 -16 -21 -32
-3 -25 15 5 106 -52 126 -80 8 -11 23 -28 34 -39 34 -34 13 -27 -40 14 -29 21
-58 39 -65 39 -8 0 -18 4 -24 9 -5 5 -26 14 -47 20 -36 9 -41 8 -64 -17 -14
-15 -29 -27 -34 -27 -4 0 -31 -21 -59 -47 -59 -55 -59 -59 3 -149 22 -33 37
-62 33 -66 -9 -9 -50 32 -88 88 -32 47 -48 60 -48 39 0 -5 -6 -10 -14 -10 -8
0 -54 -40 -104 -90 -49 -49 -96 -90 -105 -90 -21 0 -49 -47 -42 -70 5 -17 16
-20 73 -20 37 0 84 -5 105 -11 33 -9 37 -13 37 -43 0 -18 -2 -35 -6 -38 -3 -3
-37 3 -77 13 -40 10 -86 19 -104 19 l-31 0 -7 -83 c-4 -45 -5 -91 -3 -102 3
-17 -5 -21 -61 -27 -35 -4 -70 -9 -77 -12 -7 -3 -27 -1 -43 4 -17 5 -31 5 -31
1 0 -10 -158 -36 -166 -29 -2 3 23 11 56 19 54 12 60 16 55 34 -6 19 -8 39
-13 143 -2 36 -6 45 -24 50 -21 5 -21 6 -2 12 17 6 19 17 20 94 1 68 -1 86
-11 82 -9 -3 -15 10 -20 45 -5 38 -12 53 -29 59 -28 12 -181 42 -231 46 -62 4
-80 10 -83 26 -2 9 5 22 16 30 37 26 37 40 0 33 -53 -10 -103 15 -111 55 -4
18 -4 42 -1 55 3 14 -1 34 -11 49 -11 16 -15 35 -11 50 5 21 2 25 -23 31 -15
3 -32 5 -37 4 -44 -8 -47 -2 -42 84 4 88 26 136 60 137 23 0 32 -18 18 -35 -9
-11 -7 -12 8 -9 23 7 46 -20 39 -46 -3 -13 0 -20 9 -20 21 0 38 -38 23 -56 -9
-11 -8 -14 4 -14 24 0 41 -38 26 -56 -9 -11 -8 -14 4 -14 25 0 43 -29 29 -50
-10 -16 -8 -19 11 -22 16 -2 22 -10 22 -28 0 -14 10 -33 23 -44 15 -11 21 -24
17 -36 -9 -27 42 -49 102 -44 l48 4 -37 -16 c-35 -15 -55 -39 -25 -30 6 3 24
7 38 10 16 3 29 15 32 27 5 19 10 20 49 14 23 -4 53 -14 65 -22 25 -17 53 -11
53 10 0 34 -89 58 -157 42 -21 -5 -33 -4 -33 3 0 20 135 33 192 19 24 -6 28
-3 44 41 10 26 34 64 52 84 28 31 33 42 27 67 -3 16 -13 32 -21 35 -9 3 -12
11 -9 16 4 6 -1 23 -11 38 -10 15 -19 32 -20 37 -5 34 -24 56 -92 103 -42 29
-113 78 -157 109 -44 31 -98 69 -120 84 l-40 27 -25 -46 -26 -47 -52 2 c-47 2
-54 0 -64 -22 -14 -30 -23 -31 -83 -5 -34 14 -45 24 -41 35 3 8 9 21 12 29 4
10 -5 20 -25 31 -35 18 -38 33 -19 117 15 68 24 79 56 71 27 -6 27 -6 9 18
-10 13 -27 44 -39 68 -18 40 -19 50 -9 94 14 62 14 67 -3 67 -8 0 -22 7 -31
16 -9 9 -24 14 -36 11 -24 -6 -79 11 -79 25 0 5 10 9 23 8 12 -1 27 -2 34 -1
20 2 2 32 -24 42 -21 8 -23 12 -13 24 10 12 9 16 -4 21 -9 3 -16 10 -16 15 0
15 16 10 35 -11z m1345 -25 c0 -19 -4 -35 -10 -35 -5 0 -10 16 -10 35 0 19 5
35 10 35 6 0 10 -16 10 -35z m2094 12 c49 -13 75 -37 39 -37 -31 0 -107 26
-111 38 -5 15 11 15 72 -1z m-3474 -27 c0 -12 -7 -18 -22 -18 -13 0 -34 -3
-48 -7 -14 -4 -20 -3 -14 2 6 4 13 15 16 24 9 24 68 23 68 -1z m3559 -92 c-3
-73 -1 -82 16 -89 19 -7 19 -8 -2 -8 -13 -1 -23 -8 -24 -16 -3 -59 -1 -78 12
-86 10 -6 3 -9 -24 -9 -23 0 -36 -4 -32 -10 3 -5 38 -10 77 -10 39 0 68 -3 64
-7 -3 -4 -28 -6 -54 -5 -32 2 -43 -1 -33 -7 22 -14 -1 -59 -31 -60 -62 -3
-147 1 -178 8 l-35 8 75 35 c41 19 81 42 89 51 7 9 -31 -5 -85 -31 -101 -50
-171 -72 -158 -50 4 6 -1 17 -10 24 -10 7 -16 21 -14 31 4 22 71 34 107 18 18
-7 25 -7 29 3 2 6 11 12 21 12 9 0 26 6 36 14 11 8 25 12 31 9 7 -2 15 0 19 6
4 7 -6 11 -27 11 -18 0 -46 7 -62 15 -32 17 -56 19 -56 6 0 -15 -54 -9 -77 9
-29 22 -111 26 -120 5 -3 -8 -9 -15 -14 -15 -4 0 -6 7 -3 15 5 11 -3 17 -25
21 -17 4 -31 10 -31 14 0 4 -10 10 -22 14 l-23 6 22 15 c12 9 53 19 89 22 62
6 67 5 60 -12 -6 -17 -1 -18 69 -12 63 5 76 3 85 -11 9 -16 11 -16 23 0 9 12
36 19 83 24 68 7 99 18 89 35 -3 4 -12 6 -20 3 -8 -3 -29 -1 -47 5 -21 7 -59
8 -106 3 -53 -6 -75 -5 -83 4 -5 7 -6 14 -2 17 11 7 138 19 206 19 46 1 60 5
68 19 21 40 31 19 28 -63z m-2911 48 c16 -16 16 -18 -1 -31 -11 -7 -26 -11
-34 -8 -8 3 -31 6 -50 7 -42 1 -68 30 -43 47 22 15 109 5 128 -15z m591 -2 c2
-2 10 1 17 7 9 7 22 6 46 -4 18 -8 47 -18 63 -22 57 -12 115 -38 115 -51 0
-18 -10 -17 -110 2 -60 11 -85 12 -90 4 -5 -8 -29 -8 -91 -1 -46 6 -85 11 -86
11 -2 0 -3 5 -3 10 0 6 8 10 18 11 13 0 12 2 -5 9 -13 5 -23 17 -23 25 0 14
10 15 73 9 39 -3 74 -8 76 -10z m1610 -36 c14 -8 48 -9 131 -2 62 5 114 5 117
1 12 -20 -23 -30 -137 -41 -133 -13 -154 -8 -144 32 7 26 8 26 33 10z m-3020
-63 c96 -25 181 -51 188 -57 10 -8 13 -32 11 -87 l-3 -76 -110 -38 c-167 -57
-168 -57 -201 -57 -50 0 -58 18 -50 114 l7 84 -36 20 c-37 22 -40 34 -29 105
5 29 11 37 28 37 11 0 99 -20 195 -45z m4371 -7 c0 -5 -4 -8 -10 -8 -5 0 -10
10 -10 23 0 18 2 19 10 7 5 -8 10 -18 10 -22z m-1780 -13 c0 -13 -100 -19
-100 -6 0 10 40 19 78 17 12 0 23 -5 22 -11z m-1925 -26 c22 -7 36 -13 30 -15
-5 -2 -32 3 -60 10 -27 8 -41 15 -30 15 11 1 38 -4 60 -10z m3600 -49 c0 -8
-14 -17 -33 -21 -18 -4 -41 -13 -50 -21 -20 -18 -109 -41 -123 -33 -14 9 -2
23 41 45 44 22 54 25 45 10 -12 -19 12 -10 40 16 30 27 80 30 80 4z m-299 -36
c-6 -16 -7 -16 -20 2 -19 25 -9 51 12 31 8 -9 12 -23 8 -33z m-1962 19 c9 -22
-10 -41 -25 -26 -13 13 -5 43 10 43 5 0 12 -8 15 -17z m1802 -22 c13 -10 21
-21 18 -24 -8 -7 -54 22 -54 34 0 14 9 11 36 -10z m-448 -34 c2 -10 -3 -17
-12 -17 -18 0 -29 16 -21 31 9 14 29 6 33 -14z m678 2 c3 -5 1 -9 -5 -9 -17 0
-41 12 -41 20 0 10 38 1 46 -11z m-2066 0 c0 -10 -23 -17 -37 -11 -23 8 -14
22 12 20 14 -1 25 -6 25 -9z m1245 -17 c10 -26 -6 -33 -32 -16 -19 12 -27 13
-33 4 -4 -7 -33 -12 -68 -13 -35 -1 -58 -5 -53 -10 5 -5 48 -9 95 -8 69 0 86
-3 86 -14 0 -8 5 -15 10 -15 6 0 9 -6 8 -12 -2 -8 5 -12 16 -10 10 2 23 -2 27
-10 7 -10 9 -9 9 3 0 9 7 22 15 29 18 15 20 -1 3 -18 -9 -9 -8 -12 5 -12 9 0
17 6 17 14 0 10 8 13 28 10 15 -3 48 -6 75 -7 44 -2 47 -3 47 -29 0 -26 2 -28
35 -23 25 3 35 0 35 -9 0 -8 7 -17 16 -20 9 -4 14 -9 10 -13 -3 -3 -14 0 -23
9 -19 15 -63 22 -63 10 0 -4 10 -8 22 -9 11 -1 24 -7 28 -13 4 -7 24 -10 48
-7 23 2 39 1 37 -3 -3 -4 -28 -10 -57 -13 -66 -6 -523 -65 -562 -72 -24 -4
-27 -3 -16 10 11 13 8 15 -14 15 -22 0 -26 4 -25 28 1 16 3 20 6 10 7 -29 23
-20 23 12 0 28 11 36 43 31 4 0 7 3 7 9 0 5 -19 9 -42 9 -24 -1 -72 -1 -108
-1 -266 -1 -350 -3 -350 -11 0 -4 -4 -6 -9 -2 -5 3 -12 1 -16 -4 -3 -5 3 -14
12 -20 16 -8 16 -10 3 -16 -9 -3 -27 -3 -40 -1 -14 2 -36 5 -50 6 l-25 1 24
10 c22 9 23 11 7 22 -15 11 -13 13 18 12 40 -2 65 8 47 19 -13 9 -15 46 -1 46
5 0 13 -6 17 -13 9 -16 43 -30 43 -18 0 12 60 9 60 -3 0 -6 5 -3 11 6 9 17 11
17 37 0 14 -9 23 -12 19 -6 -8 13 19 27 34 18 6 -3 16 0 24 6 12 10 15 10 15
-1 0 -10 3 -10 11 -2 8 8 20 9 36 2 20 -7 24 -7 20 5 -8 20 14 86 28 86 12 0
29 -52 26 -77 -1 -7 3 -13 10 -13 6 0 9 -8 7 -17 -4 -13 1 -18 19 -18 12 0 23
4 23 8 0 5 4 6 9 3 14 -9 71 5 65 16 -3 5 -14 6 -23 3 -21 -6 -46 19 -36 35 3
6 11 8 16 5 5 -4 9 1 9 9 0 16 15 22 23 9 2 -5 2 -2 1 5 -2 6 1 12 6 12 5 0 7
6 4 14 -4 9 5 13 33 14 77 0 113 4 113 12 0 13 60 6 65 -8z m-245 -26 c0 -24
-17 -28 -23 -6 -3 13 0 20 9 20 8 0 14 -6 14 -14z m984 -14 c2 -4 -12 -9 -32
-9 -32 -1 -34 0 -12 7 34 11 38 11 44 2z m66 -2 c0 -5 -10 -10 -22 -10 -19 0
-20 2 -8 10 19 13 30 13 30 0z m-3105 -17 c21 -10 34 -22 31 -30 -3 -7 -1 -13
4 -13 6 0 9 -5 8 -12 -2 -7 11 -15 27 -18 l30 -6 -35 -12 -35 -13 25 -15 c24
-15 24 -15 -18 -10 -59 6 -75 22 -68 65 4 27 1 40 -16 58 -18 19 -19 23 -5 23
9 0 32 -8 52 -17z m1588 -8 c-5 -13 -23 -22 -23 -11 0 15 14 35 21 31 4 -3 6
-12 2 -20z m1577 5 c0 -14 -7 -20 -22 -20 -22 1 -22 1 -5 14 14 11 15 15 5 19
-8 4 -7 6 5 6 11 1 17 -6 17 -19z m-4400 -42 c0 -7 3 -23 6 -35 5 -16 2 -23
-8 -23 -22 0 -51 37 -45 55 8 18 47 20 47 3z m4358 -55 c-10 -2 -26 -2 -35 0
-10 3 -2 5 17 5 19 0 27 -2 18 -5z m-4484 -34 c12 -11 -71 -176 -96 -192 -15
-10 -15 -12 0 -24 9 -7 12 -13 5 -13 -6 0 -9 -8 -6 -19 7 -26 -13 -35 -48 -21
-35 15 -39 40 -6 40 33 0 31 39 -3 46 -41 9 -70 23 -70 34 0 19 81 160 97 168
17 10 113 -4 127 -19z m4305 20 c-17 -11 -69 -12 -69 -1 0 4 19 8 42 9 28 1
37 -2 27 -8z m94 4 c-13 -2 -33 -2 -45 0 -13 2 -3 4 22 4 25 0 35 -2 23 -4z
m-197 -28 c9 -8 29 -15 45 -15 l29 0 0 -135 0 -134 -35 -7 -35 -6 0 -117 c0
-64 -4 -123 -10 -131 -8 -14 -125 -32 -143 -23 -4 3 12 22 37 44 69 61 86 107
93 244 6 138 -5 180 -68 241 l-40 39 28 6 c50 12 84 9 99 -6z m-2816 -15 c28
-11 61 -20 73 -21 12 0 16 -3 10 -6 -7 -2 -13 -11 -13 -19 0 -8 -7 -14 -15
-14 -18 0 -20 -36 -2 -43 6 -2 10 -7 7 -10 -3 -3 -24 3 -47 13 -31 14 -44 26
-48 47 -4 15 -10 38 -15 51 -12 27 -13 27 50 2z m1094 -37 c7 -26 15 -33 35
-34 19 -1 16 -3 -13 -9 -62 -12 -76 -4 -76 42 0 35 2 39 22 36 15 -2 25 -13
32 -35z m458 3 c-2 -10 2 -23 10 -27 8 -6 -4 -8 -32 -8 -25 0 -39 3 -32 6 6 2
9 10 6 15 -4 7 -2 8 4 4 7 -4 17 -4 24 0 8 5 2 12 -17 21 l-30 13 35 -3 c28
-2 34 -6 32 -21z m-2364 -22 c3 -24 -117 -197 -140 -202 -21 -4 -108 122 -108
157 0 42 21 53 113 61 116 11 131 9 135 -16z m-1040 -57 c21 -14 14 -37 -11
-37 -25 0 -62 32 -50 43 8 9 43 5 61 -6z m1588 -53 c20 -47 18 -57 -6 -44 -26
14 -40 42 -33 68 7 28 21 19 39 -24z m-1606 -4 c0 -5 -9 -10 -19 -10 -11 0
-23 5 -26 10 -4 6 5 10 19 10 14 0 26 -4 26 -10z m267 -22 c-4 -25 -22 -35
-33 -17 -4 7 1 18 11 26 25 17 25 17 22 -9z m855 -80 c-2 -35 -9 -69 -14 -75
-15 -19 -97 -17 -105 2 -5 15 67 130 91 147 22 15 32 -12 28 -74z m-1147 42
c4 -6 -7 -10 -24 -10 -17 0 -31 5 -31 10 0 6 11 10 24 10 14 0 28 -4 31 -10z
m802 -64 c32 -65 27 -89 -19 -84 l-33 3 -3 68 c-4 86 16 91 55 13z m-429 16
c2 -7 -2 -10 -12 -6 -9 3 -16 11 -16 16 0 13 23 5 28 -10z m-392 -4 c4 -6 -1
-17 -11 -25 -22 -15 -25 -16 -44 -4 -12 8 -12 11 0 25 17 18 45 21 55 4z
m5174 -2 c0 -4 -102 -84 -127 -99 -8 -5 -11 -3 -7 5 3 7 33 32 67 55 64 44 67
46 67 39z m-4885 -46 c10 -16 -5 -50 -21 -50 -8 0 -14 -4 -14 -8 0 -5 -17 -14
-37 -20 -31 -10 -40 -9 -55 5 -22 20 -23 52 -3 59 8 3 28 1 45 -4 26 -9 31 -8
40 9 11 20 35 25 45 9z m75 0 c8 -5 12 -11 9 -14 -7 -8 -49 5 -49 15 0 12 21
11 40 -1z m4640 0 c0 -5 -7 -10 -15 -10 -8 0 -15 5 -15 10 0 6 7 10 15 10 8 0
15 -4 15 -10z m216 -27 c-1 -32 -32 -45 -38 -16 -3 14 15 35 38 43 1 0 1 -12
0 -27z m-5266 7 c13 -9 12 -12 -4 -25 -11 -8 -25 -15 -32 -15 -22 0 -27 21 -8
35 23 17 25 17 44 5z m409 -34 c10 -12 8 -17 -9 -26 -24 -13 -62 -10 -67 5 -3
10 31 31 53 34 6 0 17 -5 23 -13z m4017 -8 c-10 -6 -20 -7 -24 -3 -9 8 20 25
31 18 5 -3 2 -10 -7 -15z m1012 -52 c1 -20 -3 -36 -8 -36 -6 0 -10 8 -10 17 0
9 -7 24 -16 34 -20 22 -10 43 15 30 11 -7 18 -23 19 -45z m-4240 -10 c5 -56
-13 -69 -44 -31 -38 47 -30 73 21 71 16 -1 21 -9 23 -40z m1506 38 c18 -7 22
-24 5 -24 -6 0 -17 7 -25 15 -16 16 -7 19 20 9z m2680 -9 c3 -9 -3 -19 -15
-25 -15 -9 -21 -7 -26 6 -3 9 0 20 8 25 20 12 26 11 33 -6z m-5416 -7 c-7 -19
-34 -32 -54 -24 -19 7 -19 8 0 22 24 17 59 19 54 2z m898 -33 c-18 -28 -36
-25 -36 5 0 12 8 20 23 22 31 5 32 2 13 -27z m3484 15 c-6 -11 -15 -20 -20
-20 -14 0 -12 6 6 24 21 22 27 20 14 -4z m-3976 -15 c0 -5 -12 -17 -26 -25
-22 -12 -29 -12 -42 -1 -15 13 -14 15 6 27 26 14 63 14 62 -1z m3866 9 c0 -3
-5 -14 -11 -26 -8 -14 -17 -18 -34 -14 -20 5 -25 1 -35 -29 -6 -19 -16 -35
-20 -35 -5 0 -1 20 10 45 11 25 17 45 14 45 -3 0 -2 5 1 10 6 10 75 14 75 4z
m998 -40 c-10 -10 -28 6 -28 24 0 15 1 15 17 -1 9 -9 14 -19 11 -23z m187 9
c19 -13 19 -13 -3 -13 -12 0 -22 -4 -22 -10 0 -5 -7 -10 -16 -10 -13 0 -14 3
-5 14 9 11 7 15 -10 19 -11 3 -18 10 -15 15 7 12 43 4 71 -15z m-1149 -27 c-3
-19 -15 -53 -27 -76 -18 -34 -19 -43 -8 -57 12 -15 12 -16 -6 -9 -11 4 -36 10
-57 12 l-36 5 -36 -93 c-20 -51 -36 -99 -36 -105 0 -16 -26 -17 -35 -3 -4 6
-2 17 4 24 6 6 26 52 45 101 l34 89 51 -3 c47 -2 51 -1 51 21 0 24 45 128 55
128 3 0 4 -15 1 -34z m-4346 9 c0 -16 -43 -31 -60 -20 -8 5 -4 12 12 20 32 18
48 18 48 0z m-1150 -5 c0 -5 -9 -10 -20 -10 -34 0 -54 -75 -22 -83 13 -4 13
-5 -4 -6 -12 0 -27 -8 -34 -16 -18 -22 -32 -18 -20 6 7 11 9 27 6 35 -3 9 5
26 19 40 14 14 25 29 25 34 0 6 11 10 25 10 14 0 25 -4 25 -10z m1016 -9 c-12
-13 -14 -21 -6 -26 17 -11 2 -67 -26 -92 -13 -12 -24 -27 -24 -34 0 -6 -7 -9
-15 -6 -8 4 -17 2 -20 -4 -4 -5 -11 -7 -16 -4 -15 10 -10 35 9 42 29 11 41 28
31 44 -5 8 -9 19 -9 24 0 19 55 75 74 75 18 0 18 -1 2 -19z m4581 7 c5 -7 9
-31 8 -53 0 -31 -4 -40 -17 -40 -9 0 -20 -3 -23 -7 -12 -12 -35 4 -35 24 0 16
5 19 25 16 17 -4 25 -1 25 9 0 8 -4 11 -10 8 -5 -3 -10 -3 -10 2 0 4 -3 18 -6
31 -5 17 -2 22 14 22 11 0 24 -6 29 -12z m-167 -23 c0 -8 -4 -15 -10 -15 -5 0
-10 7 -10 15 0 8 5 15 10 15 6 0 10 -7 10 -15z m-5129 -23 c-31 -44 -47 -55
-68 -44 -22 12 -43 5 -43 -14 0 -10 -7 -13 -25 -8 -17 4 -25 2 -25 -7 0 -7 -3
-10 -6 -6 -3 3 -14 -3 -25 -14 -26 -26 -39 -24 -39 5 0 15 -7 27 -17 30 -10 2
-4 4 12 4 34 -1 80 15 90 31 3 6 17 11 29 11 13 0 29 6 36 14 6 8 28 17 48 19
20 2 41 4 45 5 5 1 -1 -11 -12 -26z m1259 20 c0 -16 -25 -32 -50 -32 -37 0
-45 12 -18 27 26 14 68 17 68 5z m4955 -23 c7 -22 -28 -69 -52 -69 -18 0 -16
13 8 54 24 41 35 45 44 15z m-6758 -39 c14 0 14 -2 0 -18 -10 -10 -17 -24 -17
-30 0 -23 -31 -12 -40 14 -11 27 -7 39 19 65 15 15 16 14 19 -8 2 -13 10 -23
19 -23z m1121 -32 c2 -62 6 -78 18 -78 9 0 14 -3 12 -7 -6 -13 -34 -76 -43
-98 -4 -11 -8 -39 -9 -62 -1 -23 -5 -45 -9 -49 -13 -14 -41 11 -48 42 -10 50
-31 76 -58 71 -18 -4 -33 3 -53 23 -29 29 -41 63 -15 41 11 -9 14 0 14 48 0
103 50 153 148 148 l40 -2 3 -77z m5222 73 c0 -11 -39 -18 -175 -31 -60 -6
-138 -13 -172 -16 -35 -4 -63 -3 -63 2 0 5 12 9 28 9 40 1 259 25 317 34 28 5
53 9 58 10 4 0 7 -3 7 -8z m-1583 -48 c-3 -10 -5 -2 -5 17 0 19 2 27 5 18 2
-10 2 -26 0 -35z m466 21 c20 -10 37 -22 37 -28 -1 -6 -18 -56 -40 -111 -37
-95 -40 -100 -66 -97 -15 2 -30 -2 -34 -8 -10 -16 -70 -3 -70 15 0 7 -16 19
-35 25 -19 6 -35 16 -35 21 0 6 19 56 42 111 l41 100 61 -5 c34 -2 78 -13 99
-23z m-5403 1 c0 -8 -9 -15 -20 -15 -22 0 -27 15 -7 23 21 9 27 7 27 -8z
m1540 7 c0 -13 -42 -29 -62 -24 -39 8 -13 28 40 31 12 0 22 -3 22 -7z m396
-34 c4 -6 -1 -17 -11 -25 -22 -15 -34 -16 -55 -3 -13 8 -12 11 5 24 24 18 51
20 61 4z m-436 -42 c0 -16 -41 -29 -66 -19 -16 6 -16 7 2 20 24 17 64 17 64
-1z m-1760 -10 c0 -19 -19 -32 -57 -41 -52 -11 -58 5 -11 31 50 27 68 30 68
10z m4630 -1 c0 -25 -95 -63 -102 -41 -2 5 11 14 29 20 18 6 38 17 45 24 16
16 28 15 28 -3z m2824 -96 c20 -50 35 -94 32 -97 -3 -3 -13 12 -21 32 -9 20
-27 62 -40 93 -28 63 -28 63 -16 63 5 0 25 -41 45 -91z m-5297 66 c6 -19 -35
-37 -58 -24 -20 10 -20 11 -2 25 20 15 55 15 60 -1z m2808 -157 c0 -85 -4
-143 -10 -145 -6 -2 -11 54 -12 153 -1 119 1 154 10 145 7 -7 11 -59 12 -153z
m1382 72 c14 -23 12 -32 -23 -123 -21 -53 -42 -97 -47 -97 -5 0 -24 13 -43 29
-18 16 -40 33 -49 38 -15 9 -15 13 -1 44 54 125 70 173 58 177 -6 2 -12 8 -12
13 0 16 101 -54 117 -81z m-4624 55 c5 -10 -4 -16 -29 -21 -45 -8 -69 11 -33
25 35 14 56 13 62 -4z m3477 -1 c0 -8 15 -21 34 -29 34 -14 46 -31 46 -66 0
-23 -13 -25 -29 -5 -7 8 -21 13 -31 11 -15 -3 -21 4 -25 33 -3 20 -8 45 -10
55 -2 9 1 17 6 17 5 0 9 -7 9 -16z m1426 -19 c-8 -31 -90 -168 -113 -186 -9
-8 -18 -10 -20 -4 -2 6 -13 25 -26 44 -12 19 -30 46 -39 60 -9 14 -17 31 -17
36 0 6 9 -5 20 -22 12 -18 23 -33 26 -33 6 0 -6 38 -22 72 -12 25 -11 27 14
37 28 11 70 17 140 19 41 2 43 1 37 -23z m-750 -10 c-4 -14 -2 -25 4 -25 5 0
10 -5 10 -11 0 -6 -7 -9 -15 -5 -17 6 -20 -15 -4 -31 7 -7 6 -12 -5 -16 -11
-4 -13 -1 -10 11 5 14 3 13 -10 -2 -21 -26 -20 -19 5 48 23 58 36 75 25 31z
m-3759 -22 c5 -15 -40 -28 -64 -19 -14 6 -14 8 3 21 22 17 56 16 61 -2z m-437
-23 c0 -14 -61 -23 -73 -11 -8 8 -5 11 10 11 12 0 24 4 28 10 6 10 35 2 35
-10z m3709 -19 c-6 -2 -15 -14 -20 -28 -12 -32 -15 -29 -23 24 l-6 42 30 -17
c16 -9 25 -19 19 -21z m-3472 3 c-9 -9 -28 6 -21 18 4 6 10 6 17 -1 6 -6 8
-13 4 -17z m1592 2 c8 -10 9 -16 2 -21 -13 -7 -51 12 -51 25 0 15 36 12 49 -4z
m-3355 -20 c34 -18 139 -97 166 -125 62 -65 151 -214 203 -341 98 -237 143
-604 102 -825 -29 -154 -35 -177 -70 -258 -66 -153 -151 -249 -225 -254 -25
-1 -52 -6 -100 -17 -20 -5 -20 -4 4 5 21 9 25 14 15 20 -8 5 -25 9 -39 9 -67
0 -218 110 -296 215 -72 96 -152 288 -194 465 -29 118 -43 332 -31 444 21 184
67 331 138 437 47 71 63 88 136 137 26 18 47 37 47 42 0 6 9 10 19 10 11 0 22
4 25 9 7 11 -17 21 -50 21 -30 0 -32 17 -1 23 32 7 126 -4 151 -17z m1814 -3
c2 -8 -5 -13 -17 -13 -12 0 -21 6 -21 16 0 18 31 15 38 -3z m97 -19 c0 -21
-32 -31 -48 -15 -8 8 -6 15 9 26 24 18 39 14 39 -11z m5137 -4 c2 -10 -6 -15
-24 -15 -33 -1 -34 2 -11 27 17 19 29 15 35 -12z m-1687 6 c25 -11 33 -19 29
-31 -7 -16 -20 -15 -76 7 -28 10 -34 19 -21 31 10 11 30 8 68 -7z m-5125 -5
c0 -5 6 -16 13 -23 29 -31 37 -46 31 -62 -9 -24 -18 -20 -52 28 -37 51 -40 66
-12 66 11 0 20 -4 20 -9z m1243 -16 c1 -5 -13 -11 -30 -13 -34 -3 -46 13 -15
21 24 7 43 4 45 -8z m1832 4 c9 -13 -26 -52 -36 -42 -12 12 1 53 17 53 7 0 16
-5 19 -11z m2539 -9 c16 -15 0 -22 -33 -15 -40 8 -43 36 -3 29 15 -3 31 -9 36
-14z m-4114 0 c0 -5 -7 -10 -15 -10 -8 0 -15 5 -15 10 0 6 7 10 15 10 8 0 15
-4 15 -10z m5310 -27 c25 -21 26 -46 3 -41 -10 2 -18 8 -18 15 0 6 -3 15 -7
19 -9 8 -11 24 -3 24 3 0 14 -8 25 -17z m468 -5 c2 -11 -4 -16 -22 -14 -29 1
-32 6 -14 24 15 15 32 10 36 -10z m-2158 2 c12 -8 12 -10 -5 -10 -11 0 -27 5
-35 10 -12 8 -12 10 5 10 11 0 27 -5 35 -10z m459 -1 c21 -7 31 -18 31 -31 0
-13 -5 -18 -14 -15 -8 3 -31 9 -50 13 -20 3 -36 8 -36 9 0 2 3 10 6 19 7 19
20 20 63 5z m-3941 -16 c-2 -11 -14 -19 -31 -21 -31 -4 -35 5 -9 24 24 19 44
17 40 -3z m3482 -13 c12 -8 12 -10 -5 -10 -11 0 -27 5 -35 10 -12 8 -12 10 5
10 11 0 27 -5 35 -10z m1190 -135 c0 -86 -4 -145 -10 -145 -5 0 -28 27 -51 61
-31 46 -39 66 -35 85 8 30 78 144 88 144 5 0 8 -65 8 -145z m-4842 123 c-3 -7
-11 -13 -18 -13 -7 0 -15 6 -17 13 -3 7 4 12 17 12 13 0 20 -5 18 -12z m2500
0 c-3 -7 -18 -14 -34 -16 -28 -2 -28 -2 -10 13 24 18 49 20 44 3z m2021 -52
c30 -45 41 -71 37 -83 -15 -38 -89 -153 -96 -148 -4 3 -7 24 -6 47 1 24 3 89
4 146 1 56 5 102 10 102 4 0 27 -29 51 -64z m1281 49 c0 -8 -4 -15 -10 -15 -5
0 -10 7 -10 15 0 8 5 15 10 15 6 0 10 -7 10 -15z m-2170 -5 c12 -8 9 -10 -12
-10 -15 0 -30 5 -33 10 -8 13 25 13 45 0z m2880 2 c0 -17 -26 -32 -54 -31 -17
0 -24 3 -16 6 8 3 19 12 23 19 9 15 47 19 47 6z m-2410 -12 c13 -9 13 -10 0
-9 -8 0 -24 4 -35 9 l-20 9 20 0 c11 0 27 -4 35 -9z m1740 -10 c10 -19 8 -20
-19 -18 -25 2 -28 5 -20 20 13 24 26 23 39 -2z m-3143 -9 c2 -19 -31 -31 -81
-31 -21 1 -21 1 -2 15 19 15 19 15 -5 16 -22 0 -23 1 -4 9 11 5 36 9 55 9 28
1 36 -3 37 -18z m2685 3 c23 -8 31 -33 13 -40 -23 -9 -48 4 -41 21 3 8 1 15
-4 15 -6 0 -10 5 -10 11 0 6 6 8 13 5 6 -3 20 -9 29 -12z m-6780 -12 c7 -10
24 -22 38 -25 17 -4 35 -23 55 -61 28 -51 29 -57 13 -72 -21 -21 -30 -15 -66
49 -16 28 -40 69 -52 90 -22 37 -12 53 12 19z m3087 -29 c12 -3 12 -6 1 -16
-10 -9 -13 -9 -17 1 -3 6 -12 12 -20 12 -31 0 -152 33 -148 41 4 6 99 -14 184
-38z m4559 35 c-5 -14 -50 -40 -57 -33 -2 3 4 14 14 25 20 22 49 27 43 8z
m-6108 -8 c0 -15 -37 -31 -56 -23 -16 6 -16 7 2 20 21 15 54 17 54 3z m2426 1
c-7 -11 -66 -20 -83 -14 -29 11 -10 23 38 23 27 0 48 -4 45 -9z m1554 -13 c10
-6 3 -7 -20 -2 -19 3 -39 10 -45 16 -12 11 42 0 65 -14z m2946 7 c10 -8 14
-15 8 -15 -5 0 -19 7 -30 15 -10 8 -14 15 -8 15 5 0 19 -7 30 -15z m-4911 -65
c-19 -38 -37 -70 -40 -70 -15 0 -1 52 25 93 45 71 55 56 15 -23z m1473 58 c19
-19 14 -31 -12 -26 -18 4 -23 1 -19 -9 4 -11 -1 -12 -23 -7 -37 9 -43 14 -16
14 12 0 22 6 22 14 0 12 12 23 31 25 3 1 10 -4 17 -11z m3132 -9 c0 -11 -27
-12 -34 0 -3 4 -3 11 0 14 8 8 34 -3 34 -14z m-6805 0 c4 -6 -2 -13 -13 -16
-13 -3 -18 -11 -15 -19 3 -8 -1 -14 -10 -14 -25 0 -30 20 -11 41 19 21 39 25
49 8z m1578 -15 c37 -9 67 -19 67 -23 0 -8 -92 11 -170 35 l-45 13 40 -5 c22
-3 70 -12 108 -20z m4307 4 c0 -6 3 -8 7 -5 8 9 33 -12 33 -29 0 -8 -10 -12
-28 -11 -22 2 -28 6 -24 20 2 9 -1 17 -7 17 -6 0 -11 5 -11 10 0 6 7 10 15 10
8 0 15 -5 15 -12z m-3599 -160 c-9 -28 -10 -23 -9 41 2 103 12 143 16 59 2
-37 -2 -82 -7 -100z m447 130 c-15 -5 -36 -4 -54 3 -26 10 -27 12 -9 18 11 5
35 3 53 -3 34 -10 34 -10 10 -18z m1397 22 c7 -11 -9 -11 -45 0 -24 8 -24 8 7
9 17 1 35 -3 38 -9z m1305 -10 c0 -5 7 -10 15 -10 8 0 19 -9 25 -20 9 -16 8
-22 -5 -26 -17 -7 -48 14 -39 27 3 5 0 9 -5 9 -6 0 -11 7 -11 15 0 8 5 15 10
15 6 0 10 -4 10 -10z m128 -38 c-4 -22 -38 -22 -52 1 -8 13 -8 20 3 27 20 12
53 -7 49 -28z m-444 13 c19 -19 10 -45 -15 -45 -13 0 -19 7 -19 23 0 20 7 37
16 37 1 0 9 -7 18 -15z m-804 -31 c0 -2 -13 2 -30 11 -16 9 -30 18 -30 21 0 2
14 -2 30 -11 17 -9 30 -18 30 -21z m-196 20 c28 -11 17 -33 -19 -40 -39 -7
-86 5 -50 14 11 2 24 10 28 18 9 15 17 17 41 8z m1879 -31 c4 10 11 17 17 17
18 0 11 -19 -12 -31 -18 -10 -24 -8 -39 12 -27 35 -23 49 4 15 20 -25 25 -27
30 -13z m857 22 c0 -8 -6 -15 -14 -15 -7 0 -19 7 -26 15 -11 13 -8 15 14 15
16 0 26 -5 26 -15z m-3210 -16 c0 -16 -5 -20 -20 -16 -11 3 -18 1 -14 -4 7
-12 -37 -11 -56 1 -12 8 -9 10 13 10 15 0 26 3 26 8 -3 17 2 22 26 22 19 0 25
-5 25 -21z m2277 -27 c-14 -15 -13 -19 4 -41 19 -23 20 -23 34 -5 8 10 15 14
15 8 0 -5 -6 -19 -14 -29 -13 -18 -15 -18 -41 13 -15 18 -31 30 -36 26 -5 -3
-30 -7 -56 -9 -27 -3 -111 -12 -188 -20 -77 -9 -159 -18 -182 -21 -23 -2 -76
-10 -117 -17 -42 -7 -76 -10 -76 -5 0 14 47 28 129 39 42 6 85 12 96 14 11 2
23 4 26 4 3 1 11 13 17 27 9 18 19 24 34 22 35 -5 34 -28 -1 -28 -17 0 -31 -4
-31 -10 0 -14 57 -13 62 1 7 21 254 47 285 31 17 -10 22 -7 33 16 8 17 14 22
17 14 3 -7 -2 -21 -10 -30z m-398 15 c6 -8 8 -17 4 -20 -7 -8 -33 11 -33 24 0
13 16 11 29 -4z m-4104 -18 l20 -8 -20 0 c-11 0 -38 7 -60 14 l-40 14 40 -6
c22 -3 49 -9 60 -14z m4060 9 c32 -14 33 -38 0 -38 -18 0 -23 4 -19 15 4 8 1
15 -5 15 -6 0 -11 5 -11 10 0 13 3 13 35 -2z m1414 -29 c74 -37 84 -40 114
-30 28 10 34 9 50 -10 21 -26 22 -58 2 -65 -13 -5 -13 -9 0 -32 8 -15 33 -45
55 -67 43 -42 76 -93 66 -103 -3 -3 -21 12 -38 33 -54 64 -148 152 -228 214
-72 56 -120 101 -107 101 3 0 42 -18 86 -41z m-4652 -16 c-3 -10 -5 -2 -5 17
0 19 2 27 5 18 2 -10 2 -26 0 -35z m2903 27 c0 -5 -7 -10 -15 -10 -8 0 -15 5
-15 10 0 6 7 10 15 10 8 0 15 -4 15 -10z m-5132 -45 c3 -13 -1 -15 -16 -11
-14 5 -21 1 -25 -14 -3 -12 0 -20 8 -20 7 0 23 -8 36 -19 13 -10 30 -16 36
-14 18 7 28 -25 13 -42 -7 -8 -23 -15 -36 -15 -28 0 -31 -12 -8 -31 15 -12 14
-15 -6 -31 -35 -29 -58 -22 -116 37 -31 30 -59 55 -64 55 -14 0 -30 35 -30 66
0 27 5 28 55 8 20 -7 20 -7 1 14 -19 22 -19 22 19 38 21 8 46 13 57 11 10 -3
21 -1 24 5 8 13 48 -15 52 -37z m2489 23 c28 -7 55 -17 60 -22 16 -17 -92 1
-137 23 l-45 22 35 -5 c19 -2 58 -10 87 -18z m1751 6 c20 -9 32 -18 25 -21
-11 -4 -73 23 -73 32 0 8 9 6 48 -11z m-2983 -29 c138 -30 150 -34 143 -40 -6
-6 -288 62 -297 71 -3 4 3 4 14 1 11 -3 74 -17 140 -32z m-375 -70 c-22 -43
-40 -82 -40 -88 0 -20 -51 -76 -64 -71 -15 6 -33 -47 -22 -65 11 -18 -6 -42
-25 -36 -13 4 -19 1 -19 -9 0 -16 -18 -31 -27 -23 -3 4 9 23 26 44 19 23 27
40 20 44 -7 4 -4 13 8 24 10 10 17 20 16 22 -4 5 27 72 36 77 5 3 12 18 16 33
17 69 49 121 80 130 16 5 31 6 33 3 1 -4 -16 -42 -38 -85z m2704 89 c22 -9 20
-34 -3 -34 -11 0 -21 -4 -23 -9 -4 -12 -58 -2 -58 11 0 6 11 7 27 3 16 -4 25
-3 21 1 -4 4 -3 13 3 21 13 15 12 15 33 7z m493 -9 c3 -9 3 -18 1 -21 -9 -9
-59 16 -53 26 10 16 45 12 52 -5z m-3973 -21 c8 -20 -24 -65 -44 -61 -9 2 -14
12 -12 27 5 44 43 68 56 34z m-594 -2 c0 -5 -12 -14 -27 -21 -28 -13 -28 -13
-9 8 20 22 36 27 36 13z m4530 -2 c12 -8 10 -10 -10 -10 -14 0 -32 5 -40 10
-12 8 -10 10 10 10 14 0 32 -5 40 -10z m3588 -2 c-3 -7 -12 -14 -21 -16 -12
-2 -15 1 -11 12 7 19 38 22 32 4z m-5085 -8 c9 0 17 -4 17 -10 0 -14 -19 -12
-55 6 -26 12 -27 14 -5 9 14 -2 33 -5 43 -5z m-1450 -19 c39 -10 108 -26 152
-35 95 -20 110 -25 103 -32 -6 -5 -348 75 -348 82 0 7 19 4 93 -15z m1408 -12
c19 -6 41 -13 49 -16 10 -3 1 -10 -23 -19 -21 -7 -44 -11 -52 -8 -8 4 -15 1
-15 -6 0 -8 -14 -9 -45 -4 -32 4 -50 2 -62 -7 -15 -13 -15 -12 -6 5 9 16 24
20 79 23 37 1 72 7 78 13 7 7 4 10 -9 10 -21 0 -58 20 -39 20 6 0 26 -5 45
-11z m1699 -4 c17 -9 30 -17 30 -20 0 -7 -60 16 -66 26 -8 13 3 11 36 -6z
m1780 -24 c-6 -12 -15 -21 -21 -21 -10 0 -5 13 14 38 15 19 20 7 7 -17z
m-2425 11 c22 -16 16 -35 -9 -30 -14 3 -23 1 -20 -3 7 -11 -25 -10 -51 1 -18
8 -17 9 8 9 17 1 27 6 27 16 0 16 28 20 45 7z m485 -2 c0 -18 -5 -25 -14 -22
-5 2 -12 -2 -17 -9 -4 -8 -16 -9 -35 -4 l-29 8 30 7 c17 4 26 8 22 9 -16 2 5
21 24 21 10 0 19 -4 19 -10z m3561 -16 c14 -38 4 -41 -14 -5 -9 17 -11 31 -6
31 5 0 14 -12 20 -26z m-8787 -41 c10 -32 20 -64 23 -70 2 -7 -3 -13 -12 -13
-17 0 -42 49 -55 108 -7 27 -5 32 10 32 13 0 22 -16 34 -57z m4005 41 c2 -2
-6 -4 -19 -4 -23 0 -23 0 -4 -15 17 -13 16 -14 -21 -9 -32 4 -36 3 -17 -5 22
-11 29 -26 14 -35 -5 -3 -27 0 -49 7 -35 10 -39 15 -30 28 27 36 100 55 126
33z m2352 -36 c-15 -49 -16 -50 -19 -21 -3 32 12 73 27 73 4 0 0 -23 -8 -52z
m415 41 c3 -6 1 -16 -5 -22 -9 -9 -14 -8 -21 3 -5 8 -10 18 -10 23 0 11 28 8
36 -4z m-45 -18 c17 -14 21 -23 13 -31 -15 -15 -37 -4 -51 25 -14 31 4 34 38
6z m99 4 c15 -18 6 -45 -13 -45 -8 0 -20 7 -27 15 -10 12 -10 18 0 30 16 19
24 19 40 0z m-4650 -6 c0 -5 4 -8 9 -5 5 3 22 -1 37 -9 16 -8 35 -15 43 -15 8
0 12 -3 8 -6 -5 -5 -71 6 -132 23 l-20 6 20 8 c28 11 35 11 35 -2z m830 2 c0
-5 -12 -12 -27 -16 -16 -3 -37 -15 -49 -26 -20 -19 -21 -19 -39 1 -14 16 -8
29 8 18 2 -2 11 3 20 11 9 7 22 11 29 9 7 -3 22 -2 33 3 11 4 21 8 23 8 1 1 2
-3 2 -8z m755 -31 c16 -31 42 -39 62 -19 7 7 20 8 34 3 27 -9 34 -11 49 -13 6
0 10 -5 10 -10 0 -5 -16 -9 -35 -8 -19 1 -35 5 -35 10 0 4 -7 7 -15 7 -8 0
-15 -7 -15 -16 0 -13 -3 -14 -15 -4 -8 7 -49 13 -90 15 -42 1 -81 7 -88 14 -8
8 -3 11 21 11 20 0 35 6 38 15 5 13 8 13 21 -1 19 -18 39 -13 37 10 -2 24 4
20 21 -14z m4643 5 c21 -22 22 -26 8 -31 -17 -7 -45 20 -46 44 0 18 12 14 38
-13z m-1598 -54 c0 -13 12 -35 27 -49 24 -22 32 -24 92 -19 41 3 57 2 41 -3
-14 -4 -47 -9 -75 -9 -27 -1 -56 -5 -63 -10 -16 -9 65 -4 147 10 70 12 128 12
136 0 3 -6 -14 -12 -37 -15 -550 -72 -665 -87 -674 -91 -7 -2 -10 4 -7 15 6
24 17 27 123 35 112 8 269 30 277 38 3 4 -2 7 -13 7 -19 0 -48 33 -37 43 6 7
44 -13 55 -28 5 -6 8 -6 8 2 0 6 -4 15 -10 18 -5 3 -10 16 -10 28 0 12 -7 31
-15 41 -25 33 -19 50 10 29 14 -10 25 -28 25 -42z m-4195 39 c19 -8 19 -9 -2
-9 -12 -1 -25 4 -28 9 -7 12 2 12 30 0z m2745 -5 c16 -9 19 -14 9 -15 -8 0
-24 7 -35 15 -24 18 -7 19 26 0z m1840 -15 c-6 -12 -14 -19 -17 -17 -2 3 1 15
7 27 6 12 14 19 17 17 2 -3 -1 -15 -7 -27z m-5065 -7 c-5 -23 -4 -26 6 -15 17
16 39 16 39 -1 0 -8 56 -24 158 -46 86 -19 168 -41 182 -48 24 -13 24 -13 -10
-7 -19 4 -44 7 -55 6 -25 -1 -357 78 -368 88 -11 10 22 48 42 49 9 1 11 -7 6
-26z m251 11 c78 -16 127 -33 94 -33 -19 -1 -199 47 -184 48 7 1 47 -6 90 -15z
m989 -4 c-44 -6 -49 -5 -42 7 3 5 23 7 44 4 l38 -5 -40 -6z m196 3 c8 -8 -11
-9 -84 -5 -18 1 -26 6 -21 13 8 13 90 7 105 -8z m1466 0 c2 -6 -5 -14 -16 -18
-25 -8 -35 -38 -21 -65 11 -20 5 -25 -27 -21 -7 1 -13 -5 -13 -14 0 -17 -25
-21 -35 -5 -4 6 1 7 12 3 10 -3 15 -2 11 2 -5 5 1 14 12 22 25 18 25 34 0 56
-28 24 -25 34 10 29 21 -3 32 0 36 12 7 18 25 17 31 -1z m-761 -8 c19 -15 19
-15 -1 -12 -11 1 -25 6 -32 10 -6 4 -19 4 -29 0 -12 -4 -15 -3 -10 5 10 17 48
15 72 -3z m447 9 c3 -3 3 -12 1 -19 -4 -10 -12 -11 -35 -3 -16 5 -29 14 -29
19 0 10 53 13 63 3z m477 -9 c11 -13 8 -15 -13 -15 -26 0 -42 12 -30 24 11 11
30 7 43 -9z m1540 5 c0 -5 5 -9 11 -7 13 3 36 -30 27 -39 -4 -3 -17 -4 -30 -1
-16 4 -23 14 -24 32 -1 14 2 25 7 25 5 0 9 -4 9 -10z m831 0 c32 -18 21 -28
-26 -25 -25 2 -43 0 -41 -4 7 -11 -207 -63 -280 -68 -60 -5 -61 -5 -61 19 0
24 3 26 96 37 53 6 128 20 166 30 82 22 119 25 146 11z m-707 -16 c10 -26 7
-34 -13 -34 -23 0 -35 15 -27 35 7 20 32 19 40 -1z m-3893 -6 c-1 -5 -3 -7 -5
-5 -2 1 -13 -7 -25 -17 -23 -21 -27 -15 -10 15 10 19 41 24 40 7z m1687 6 c32
-9 27 -26 -5 -18 -32 8 -55 24 -32 24 7 0 24 -3 37 -6z m507 -17 c7 -7 4 -8
-8 -3 -10 3 -27 6 -38 6 -10 0 -19 5 -19 10 0 12 50 2 65 -13z m-4070 -4 c42
-20 41 -34 -5 -46 -27 -7 -37 -5 -53 11 -21 22 -17 52 7 52 9 0 31 -8 51 -17z
m3166 -19 c14 -17 10 -17 -47 -3 -44 11 -56 23 -31 32 17 6 63 -11 78 -29z
m-1695 16 c8 0 14 -4 14 -9 0 -11 -49 -1 -57 12 -4 7 0 8 11 4 10 -4 24 -7 32
-7z m78 -36 c3 -26 6 -65 6 -88 0 -41 -1 -42 -44 -54 -24 -6 -51 -19 -60 -27
-52 -52 -20 72 41 160 21 30 41 55 44 55 4 0 9 -21 13 -46z m656 25 c0 -12 -5
-19 -12 -17 -7 3 -18 -6 -25 -20 -16 -30 -17 -52 -2 -52 5 0 8 -4 4 -10 -6 -9
35 -22 108 -36 24 -4 42 -2 52 6 12 10 18 10 32 -1 13 -11 17 -11 20 -1 6 17
23 15 23 -4 0 -11 6 -14 23 -8 l22 6 -24 -25 -23 -26 72 -36 c54 -27 81 -35
102 -31 21 4 30 1 35 -10 3 -9 17 -20 31 -25 21 -8 32 -6 56 12 22 15 18 9
-11 -20 -24 -22 -43 -44 -42 -48 0 -12 112 -103 147 -120 32 -16 41 -36 21
-49 -6 -4 -8 -20 -4 -40 3 -19 3 -34 0 -34 -3 0 -33 30 -68 67 -34 36 -66 70
-72 74 -5 5 -26 22 -45 39 -19 17 -60 47 -90 67 -30 20 -67 50 -82 66 -17 18
-38 30 -56 31 -16 1 -35 6 -43 12 -8 6 -27 14 -44 17 -16 3 -61 14 -100 26
-38 11 -73 17 -77 15 -4 -3 -25 0 -45 5 -21 5 -58 11 -83 12 -25 2 -48 8 -53
14 -5 6 -11 4 -18 -7 -7 -13 -21 -17 -49 -16 -22 1 -40 3 -40 5 0 15 23 43 31
38 5 -4 9 -2 9 3 0 5 30 8 68 8 90 0 133 8 144 28 12 21 28 21 29 -1 0 -10 5
-2 11 17 11 39 44 90 59 90 5 0 9 -9 9 -21z m855 -1 c16 -7 24 -17 20 -26 -4
-11 -2 -12 8 -4 16 14 57 -10 57 -33 0 -23 -16 -25 -59 -7 -41 17 -51 34 -30
48 8 4 3 12 -12 20 -30 17 -19 18 16 2z m915 4 c0 -5 -6 -16 -13 -26 -13 -18
-14 -18 -20 -2 -4 10 -5 22 -1 27 7 11 34 12 34 1z m-1860 -18 c0 -9 -45 -74
-51 -74 -4 0 -9 7 -13 15 -3 8 -1 15 5 15 6 0 9 8 7 18 -4 26 10 41 32 35 11
-3 20 -7 20 -9z m-1115 -25 c-5 -22 -4 -29 4 -25 6 4 11 14 11 22 0 8 2 14 4
14 2 0 11 3 19 6 11 4 16 -2 19 -23 3 -24 10 -30 58 -45 30 -9 90 -25 133 -35
50 -11 77 -22 77 -31 0 -9 -7 -11 -22 -6 -13 4 -36 11 -53 15 -266 68 -285 74
-280 87 3 7 5 22 5 33 0 11 7 19 16 19 12 0 14 -7 9 -31z m3231 16 c24 -18 7
-19 -26 0 -16 9 -19 14 -9 15 8 0 24 -7 35 -15z m-2436 -10 c7 -8 16 -12 21
-9 5 3 6 -3 2 -12 -4 -12 -3 -15 5 -10 15 9 15 -9 1 -35 -11 -21 -149 -94
-149 -79 0 11 35 31 42 25 2 -2 22 11 45 29 l41 32 -37 1 c-20 1 -42 -3 -48
-9 -10 -8 -13 -6 -13 6 0 16 56 76 71 76 4 0 12 -7 19 -15z m769 9 c17 -4 31
-11 31 -16 0 -6 -8 -7 -17 -3 -10 4 -40 11 -68 15 -45 7 -46 8 -14 9 20 0 51
-2 68 -5z m1029 -15 c4 -22 -84 -37 -102 -18 -8 9 -4 10 22 5 21 -3 31 -2 27
4 -10 16 5 31 28 28 12 -2 23 -10 25 -19z m-879 2 c9 -6 4 -8 -17 -7 -17 1
-34 5 -38 9 -10 10 38 9 55 -2z m1351 -1 c22 -13 5 -23 -27 -16 -21 6 -24 9
-12 17 18 11 20 11 39 -1z m1165 -39 c-4 -23 -11 -41 -16 -41 -12 0 -11 5 3
51 14 49 22 43 13 -10z m-2391 13 c4 -11 1 -14 -11 -12 -10 2 -19 11 -21 21
-4 21 24 13 32 -9z m2522 11 c4 -8 3 -23 0 -32 -6 -15 -8 -15 -16 -3 -13 20
-12 50 0 50 6 0 13 -7 16 -15z m1775 -61 c55 -62 107 -144 92 -144 -5 0 -17
15 -28 33 -10 17 -24 37 -29 43 -6 7 -24 29 -41 50 -16 20 -40 46 -52 57 -25
22 -31 43 -10 30 8 -4 38 -35 68 -69z m762 56 c-3 -11 -12 -20 -19 -20 -16 0
-16 2 -8 24 9 24 33 20 27 -4z m-5999 -35 c-34 -26 -45 -13 -22 24 10 17 13
17 26 4 13 -12 12 -16 -4 -28z m974 27 c6 -18 -15 -14 -22 4 -4 10 -1 14 6 12
6 -2 14 -10 16 -16z m1140 12 c32 -9 27 -26 -5 -18 -32 8 -55 24 -32 24 7 0
24 -3 37 -6z m2532 -20 c0 -8 -4 -12 -10 -9 -5 3 -10 13 -10 21 0 8 5 12 10 9
6 -3 10 -13 10 -21z m265 2 c13 -13 27 -36 31 -50 6 -25 -2 -96 -11 -96 -3 0
-25 16 -51 35 -25 19 -51 35 -58 35 -7 0 -20 6 -30 13 -16 12 -17 17 -6 38 29
54 85 65 125 25z m-4435 -7 c0 -12 -29 -24 -37 -16 -3 4 -3 13 0 21 6 16 37
11 37 -5z m568 9 c16 -16 16 -33 0 -21 -7 6 -22 9 -34 8 -11 -1 -21 4 -21 12
0 16 39 17 55 1z m4063 -16 l31 -27 -18 -45 c-9 -25 -21 -51 -27 -57 -16 -22
-40 2 -58 58 -30 92 7 129 72 71z m-6843 9 c19 -11 11 -45 -11 -49 -10 -2 -30
4 -44 14 -25 16 -26 17 -8 30 21 16 44 18 63 5z m1492 -3 c0 -5 -6 -11 -14
-14 -11 -4 -11 -10 -2 -29 9 -21 12 -22 17 -7 6 16 7 16 14 0 7 -17 -32 -71
-45 -63 -4 3 -40 -27 -79 -65 -39 -39 -75 -70 -81 -70 -19 0 -10 29 10 35 28
9 122 104 115 116 -4 5 -1 9 4 9 6 0 11 12 11 26 0 15 4 23 11 19 6 -4 8 -14
4 -24 -5 -12 -3 -13 5 -5 9 9 9 17 0 34 -6 12 -9 27 -7 34 6 14 37 18 37 4z
m1378 0 c19 -19 14 -30 -8 -18 -11 6 -20 15 -20 20 0 14 14 12 28 -2z m4421
-22 c23 -24 43 -80 33 -90 -3 -3 -15 -6 -26 -6 -15 0 -29 15 -50 54 -16 29
-26 58 -22 64 9 15 41 4 65 -22z m296 17 c18 -14 18 -15 2 -9 -10 3 -23 6 -28
6 -5 0 -9 5 -9 10 0 14 12 12 35 -7z m-4368 -12 c-4 -15 1 -17 25 -15 26 3 28
2 18 -11 -9 -10 -18 -12 -37 -4 -15 5 -33 7 -42 4 -9 -4 -6 4 8 19 29 31 35
32 28 7z m546 -1 c-3 -11 -9 -17 -14 -14 -14 8 -10 34 5 34 9 0 12 -7 9 -20z
m562 -1 c6 -19 -6 -38 -25 -39 -10 0 -31 41 -25 50 11 18 44 10 50 -11z
m-3461 -45 c-4 -16 -1 -25 7 -28 33 -9 100 -27 182 -47 48 -12 87 -26 87 -31
0 -12 20 -17 -323 73 -21 5 -35 14 -32 19 3 4 14 6 25 3 16 -4 20 0 20 19 0
31 10 41 26 27 8 -7 11 -21 8 -35z m3172 31 c24 -18 7 -19 -26 0 -16 9 -19 14
-9 15 8 0 24 -7 35 -15z m-646 -16 c0 -20 -8 -23 -34 -13 -25 10 -19 32 9 32
18 0 25 -6 25 -19z m477 -6 c7 -21 -80 -32 -93 -12 -5 9 4 10 32 6 21 -4 33
-4 25 0 -11 5 -11 7 0 14 16 10 31 7 36 -8z m353 -8 c-14 -17 -30 -20 -30 -6
0 5 8 12 18 14 9 3 19 5 21 6 2 0 -2 -6 -9 -14z m849 1 c19 -22 -65 -33 -479
-61 -65 -4 -73 -3 -57 9 10 8 58 16 122 20 57 4 124 9 147 12 182 18 242 25
246 29 7 7 8 7 21 -9z m-1876 -28 c5 -19 5 -19 -14 -2 -22 20 -25 36 -5 28 8
-3 16 -14 19 -26z m152 22 c8 -13 -25 -13 -45 0 -12 8 -9 10 12 10 15 0 30 -4
33 -10z m3595 -62 c0 -7 -9 -19 -21 -26 -18 -11 -24 -11 -40 4 -22 20 -23 32
-8 70 l10 28 30 -31 c16 -18 29 -38 29 -45z m20 42 c9 -16 8 -18 -5 -14 -8 4
-15 12 -15 20 0 20 7 17 20 -6z m-6320 -26 c-6 -16 -11 -56 -10 -89 4 -148 0
-226 -11 -220 -7 5 -9 63 -8 171 3 138 5 164 18 167 22 5 23 3 11 -29z m2601
15 l20 -20 6 20 c3 12 9 21 14 21 5 0 3 -11 -3 -25 -6 -14 -14 -25 -17 -25
-12 0 -65 49 -53 50 6 0 21 -9 33 -21z m2799 -4 c-7 -9 -15 -13 -18 -10 -3 2
1 11 8 20 7 9 15 13 18 10 3 -2 -1 -11 -8 -20z m-2025 -28 c6 -6 0 -6 -15 -2
-14 4 -32 14 -40 22 -13 13 -11 13 15 2 17 -7 35 -17 40 -22z m-3165 -1 c0 -8
-4 -17 -9 -20 -10 -7 -23 19 -14 28 11 11 23 6 23 -8z m2338 -11 c21 -21 23
-24 7 -19 -17 7 -18 5 -8 -7 18 -22 0 -47 -21 -30 -12 10 -13 17 -4 35 11 21
11 21 -10 3 -30 -27 -46 -12 -20 18 12 14 23 25 25 25 2 0 16 -11 31 -25z
m172 4 c0 -18 -4 -20 -25 -15 -15 4 -25 2 -25 -4 0 -6 -5 -8 -12 -4 -9 6 -9 9
-1 11 7 3 9 11 6 19 -4 10 3 14 26 14 25 0 31 -4 31 -21z m-830 3 c0 -13 -74
-42 -83 -33 -12 12 30 34 48 27 8 -3 17 -1 20 4 7 12 15 13 15 2z m1300 -7
c10 -12 10 -15 -3 -15 -8 0 -23 3 -32 6 -13 5 -14 8 -3 15 18 12 24 11 38 -6z
m-25 -28 c7 -6 2 -8 -15 -3 -14 3 -31 6 -37 6 -7 0 -13 5 -13 10 0 12 50 2 65
-13z m558 -32 c-43 -64 -63 -73 -33 -16 16 32 53 71 67 71 2 0 -14 -25 -34
-55z m-1449 29 c11 -28 6 -39 -9 -20 -8 11 -15 23 -15 28 0 14 18 9 24 -8z
m-1636 -23 c2 -13 -5 -33 -16 -44 -10 -12 -24 -36 -30 -54 -17 -50 -112 -185
-112 -158 0 3 8 18 18 33 58 84 76 116 79 135 2 12 11 32 19 45 9 13 13 26 10
30 -3 3 -6 -1 -6 -8 0 -7 -2 -11 -5 -8 -9 9 18 59 29 55 6 -2 12 -14 14 -26z
m1735 9 c7 0 11 -30 3 -30 -2 0 -20 7 -39 15 -50 21 -55 35 -9 24 20 -5 40 -9
45 -9z m1907 -45 l0 -65 -35 0 c-21 0 -35 -5 -36 -12 0 -9 -2 -9 -5 -2 -3 6
-16 9 -29 6 -24 -4 -25 -3 -25 57 0 55 2 61 23 65 112 24 107 27 107 -49z
m-1812 -1 c3 -28 3 -28 -12 -9 -19 24 -21 48 -3 43 6 -3 13 -18 15 -34z m858
21 c24 -18 7 -19 -26 0 -16 9 -19 14 -9 15 8 0 24 -7 35 -15z m701 -25 c-1
-31 -5 -39 -17 -34 -8 4 -23 7 -34 9 -16 1 -45 37 -46 58 0 4 22 7 50 7 l50 0
-3 -40z m-3644 -1 c53 -13 97 -27 97 -32 0 -4 -8 -6 -17 -3 -10 3 -54 15 -98
27 -44 12 -87 25 -95 31 -13 8 -13 9 0 5 8 -3 59 -15 113 -28z m6041 15 c4
-10 1 -14 -6 -12 -15 5 -23 28 -10 28 5 0 13 -7 16 -16z m-5144 -12 c14 -1 44
-3 68 -4 23 -1 42 -5 42 -10 0 -5 4 -7 8 -4 15 9 168 -52 242 -96 300 -179
510 -596 510 -1013 0 -212 -97 -489 -224 -643 -152 -184 -392 -273 -616 -228
-176 36 -303 108 -445 251 -196 197 -304 465 -319 792 -5 102 33 332 65 393 4
8 18 42 30 75 47 124 175 278 297 358 63 42 185 97 214 97 10 0 10 2 1 8 -22
14 2 31 47 34 25 2 47 0 50 -3 3 -3 16 -6 30 -7z m1528 -12 c-13 -21 -38 -27
-38 -10 0 9 28 29 43 30 4 0 2 -9 -5 -20z m352 4 c0 -11 -5 -14 -16 -10 -9 3
-20 6 -25 6 -5 0 -9 5 -9 10 0 6 11 10 25 10 16 0 25 -6 25 -16z m-2100 -26
c0 -4 -9 -12 -21 -18 -17 -10 -20 -9 -17 7 5 27 21 43 30 29 4 -6 8 -14 8 -18z
m3070 6 c0 -8 -4 -14 -10 -14 -5 0 -10 9 -10 21 0 11 5 17 10 14 6 -3 10 -13
10 -21z m-1015 6 c8 -13 -25 -13 -45 0 -12 8 -9 10 12 10 15 0 30 -4 33 -10z
m2673 -13 c4 -20 -25 -34 -40 -19 -15 15 -1 44 19 40 10 -2 19 -11 21 -21z
m676 -39 c6 -4 14 0 19 10 4 10 5 7 1 -8 -3 -14 -6 -38 -6 -55 0 -16 -3 -22
-5 -12 -2 9 -9 17 -14 17 -6 0 -8 9 -4 19 3 11 1 22 -5 26 -5 3 -9 16 -9 28 1
20 2 21 6 2 3 -11 10 -23 17 -27z m-3158 -9 c3 -5 2 -9 -1 -9 -9 0 -65 30 -65
35 0 7 60 -16 66 -26z m3444 0 c0 -10 -4 -19 -10 -19 -5 0 -10 12 -10 26 0 14
4 23 10 19 6 -3 10 -15 10 -26z m-3250 -4 c0 -18 -27 -26 -39 -11 -7 9 -7 16
0 23 14 14 39 6 39 -12z m-702 -15 c12 -12 22 -26 22 -33 -1 -7 -11 0 -23 16
-28 33 -41 35 -32 5 5 -18 4 -20 -4 -8 -28 39 0 54 37 20z m-2393 -12 c13 -5
9 -6 -15 -2 -19 4 -42 10 -50 15 -18 11 34 1 65 -13z m2660 2 c19 -8 19 -9 -2
-9 -12 -1 -25 4 -28 9 -7 12 2 12 30 0z m955 1 c0 -13 -29 -35 -37 -28 -7 8
15 37 28 37 5 0 9 -4 9 -9z m2760 -43 c0 -5 -11 -8 -25 -8 -27 0 -28 1 -19 24
5 12 9 13 25 3 10 -6 19 -15 19 -19z m-1410 -3 c0 -16 -6 -25 -15 -25 -9 0
-15 9 -15 25 0 16 6 25 15 25 9 0 15 -9 15 -25z m1100 -2 c7 -16 19 -40 26
-55 19 -35 18 -59 -1 -51 -21 7 -55 75 -55 108 0 33 13 32 30 -2z m-4136 2
c-4 -8 -10 -12 -15 -9 -14 8 -10 24 6 24 9 0 12 -6 9 -15z m406 -2 c-1 -5 -7
-19 -14 -32 -12 -21 -11 -26 6 -43 16 -16 22 -17 35 -6 15 12 15 11 3 -12 -7
-14 -14 -26 -15 -27 -1 -2 -16 15 -34 37 -31 39 -32 42 -17 65 16 24 36 34 36
18z m525 -14 c16 -16 -20 -10 -41 7 -18 14 -18 15 6 8 14 -3 29 -10 35 -15z
m751 -14 c-7 -29 -26 -34 -26 -7 0 18 20 45 28 37 2 -2 2 -16 -2 -30z m1654
21 c0 -18 -16 -29 -30 -21 -13 8 -1 35 16 35 8 0 14 -6 14 -14z m-1709 -29
c-8 -8 -11 -7 -11 4 0 20 13 34 18 19 3 -7 -1 -17 -7 -23z m1424 -17 c-3 -5
-15 -10 -26 -10 -11 0 -17 5 -14 10 3 6 15 10 26 10 11 0 17 -4 14 -10z m105
-21 c0 -5 -10 -9 -22 -9 -13 0 -47 -7 -75 -14 -43 -11 -53 -12 -53 -1 0 7 19
15 50 19 27 4 55 13 62 20 13 14 38 4 38 -15z m1050 9 c0 -19 -2 -20 -10 -8
-13 19 -13 30 0 30 6 0 10 -10 10 -22z m-6070 -20 c0 -13 -23 -5 -28 10 -2 7
2 10 12 6 9 -3 16 -11 16 -16z m3508 -20 c6 -16 8 -28 3 -28 -9 0 -31 44 -31
62 0 16 13 -1 28 -34z m46 -28 c-8 -7 -24 24 -23 45 0 15 4 13 14 -10 7 -16
11 -32 9 -35z m-799 29 c16 -16 -20 -10 -41 7 -18 14 -18 15 6 8 14 -3 29 -10
35 -15z m-958 -25 c31 -28 65 -31 89 -6 17 16 17 16 11 0 -4 -11 0 -21 11 -27
16 -10 16 -10 0 -11 -10 0 -18 5 -18 10 0 6 -5 10 -11 10 -6 0 7 -18 30 -40
22 -22 41 -44 41 -49 0 -5 -24 -1 -52 9 -35 12 -72 17 -108 14 -30 -2 -60 -1
-66 4 -12 8 -64 100 -64 114 0 19 111 -4 137 -28z m4290 -189 c-4 -128 -18
-215 -46 -280 -33 -78 -44 -99 -70 -135 -21 -29 -30 -36 -35 -25 -3 8 -1 15 4
15 6 0 10 6 10 13 0 7 11 21 25 31 14 11 25 29 25 42 0 13 5 24 10 24 6 0 10
8 10 18 0 10 4 22 8 28 11 12 33 106 40 168 3 28 6 114 6 191 0 105 2 129 9
95 4 -25 6 -108 4 -185z m-1119 193 c-5 -15 -75 -35 -85 -25 -3 4 2 14 13 22
24 18 77 20 72 3z m-8248 -175 c46 -93 96 -190 112 -216 15 -26 28 -55 28 -63
0 -13 -4 -13 -27 1 -62 37 -137 168 -178 309 -22 77 -32 136 -21 136 1 0 41
-75 86 -167z m8235 121 c-10 -7 -22 -11 -28 -7 -6 3 -3 11 8 19 10 7 22 11 28
7 6 -3 3 -11 -8 -19z m169 3 c-3 -8 -12 -18 -20 -21 -10 -4 -13 -2 -8 7 21 37
41 47 28 14z m935 6 c0 -10 -4 -36 -8 -58 -8 -38 -8 -38 -8 18 0 31 4 57 9 57
4 0 8 -8 7 -17z m-3459 -13 c0 -16 -23 -60 -32 -60 -10 0 -11 54 -1 63 10 10
33 8 33 -3z m116 -11 c8 -14 -10 -11 -32 6 -18 13 -18 14 4 8 12 -3 25 -9 28
-14z m264 -43 c0 -6 -9 0 -20 14 -26 33 -25 52 0 21 11 -13 20 -28 20 -35z
m3863 28 c-4 -10 -9 -12 -15 -6 -12 12 -1 35 12 27 5 -3 6 -13 3 -21z m-2983
-36 c0 -5 -9 -7 -20 -3 -10 3 -27 2 -37 -3 -10 -5 -44 -12 -76 -15 -48 -5 -58
-3 -55 9 2 11 20 16 67 19 35 3 65 6 68 8 7 8 53 -5 53 -15z m1290 -13 c-7 -9
-15 -13 -18 -10 -3 2 1 11 8 20 7 9 15 13 18 10 3 -2 -1 -11 -8 -20z m-1700
-6 c30 1 71 4 91 7 21 3 40 1 43 -5 9 -14 -44 -21 -138 -18 -58 1 -81 6 -84
16 -4 11 0 12 14 6 11 -4 44 -7 74 -6z m-790 -9 c8 -5 12 -11 9 -14 -3 -3 -14
1 -25 9 -21 16 -8 20 16 5z m-100 -8 c0 -5 -7 -17 -15 -28 -15 -19 -20 -8 -9
20 6 17 24 22 24 8z m-520 -12 c-19 -13 -30 -13 -30 0 0 6 10 10 23 10 18 0
19 -2 7 -10z m380 -30 c0 -4 -6 -10 -14 -13 -10 -4 -12 0 -9 14 5 18 23 18 23
-1z m161 -23 c-13 -13 -15 1 -4 30 7 17 8 17 11 -1 2 -10 -1 -23 -7 -29z
m-200 -20 c-13 -13 -26 -3 -16 12 3 6 11 8 17 5 6 -4 6 -10 -1 -17z m-520 -45
c23 -26 30 -50 17 -58 -8 -5 -7 -10 3 -18 33 -26 14 -61 -28 -50 -14 4 -18 15
-19 52 0 26 -4 57 -8 70 -10 28 12 31 35 4z m-256 -33 c10 -30 0 -33 -13 -4
-6 14 -7 25 -2 25 5 0 12 -9 15 -21z m2309 -1 c-11 -13 -29 -40 -40 -61 -17
-34 -54 -78 -54 -65 0 10 52 123 62 136 6 6 20 12 31 12 20 0 20 0 1 -22z
m2130 7 c-4 -8 -10 -15 -15 -15 -5 0 -9 7 -9 15 0 8 7 15 15 15 9 0 12 -6 9
-15z m-50 -63 c-8 -33 -23 -54 -35 -46 -14 8 -11 37 7 62 20 28 36 19 28 -16z
m472 -96 c-9 -21 -11 -38 -5 -41 5 -4 6 -11 3 -17 -5 -8 4 -9 28 -5 35 5 36 5
27 -21 -18 -55 -22 -62 -30 -62 -16 0 -23 32 -10 51 9 15 8 19 -3 19 -13 0
-46 41 -46 57 0 4 10 24 22 43 25 42 35 26 14 -24z m-1258 11 c2 -10 -3 -17
-12 -17 -18 0 -29 16 -21 31 9 14 29 6 33 -14z m1143 -23 l24 -27 -32 17 c-36
18 -51 36 -30 36 7 0 24 -12 38 -26z m-905 -6 c10 -16 -34 -50 -60 -46 -15 2
-22 12 -24 31 -3 25 -1 27 37 27 22 0 43 -5 47 -12z m408 -58 c35 -57 36 -60
21 -84 -16 -25 -16 -25 14 -21 17 2 31 0 31 -5 0 -6 -4 -10 -10 -10 -5 0 -10
-8 -10 -17 -1 -16 -2 -16 -10 -2 -9 15 -54 18 -68 5 -12 -12 -41 28 -57 79
-16 48 -16 55 -1 84 25 47 48 40 90 -29z m590 4 c4 -9 4 -19 2 -21 -8 -8 -26
8 -26 23 0 19 16 18 24 -2z m179 -11 c-4 -10 -13 -24 -20 -31 -11 -11 -13 -10
-13 5 0 19 18 43 32 43 4 0 4 -8 1 -17z m-958 -100 c-11 -20 -28 -34 -45 -38
-32 -7 -78 9 -86 30 -8 19 13 45 36 45 9 0 37 13 61 30 l44 29 3 -32 c2 -18
-4 -46 -13 -64z m-3179 28 c8 6 14 7 14 3 0 -5 -9 -15 -19 -21 -16 -10 -20 -9
-24 9 -3 11 -3 27 1 36 5 13 8 10 10 -11 3 -23 6 -26 18 -16z m2455 19 c10 -6
19 -18 19 -26 0 -8 12 -31 26 -50 15 -19 24 -37 22 -40 -8 -8 -118 96 -118
112 0 17 23 18 51 4z m1382 -104 c14 5 17 0 17 -28 0 -39 -14 -58 -38 -51 -12
3 -17 14 -16 34 3 60 4 65 12 51 5 -7 16 -10 25 -6z m-4397 -22 c17 -14 17
-15 1 -10 -10 3 -23 6 -28 6 -5 0 -9 5 -9 10 0 14 13 12 36 -6z m4470 -68 c10
-21 9 -24 -12 -22 -25 1 -28 5 -18 30 9 22 17 20 30 -8z m-3816 -96 c0 -5 -10
-9 -22 -7 -14 1 -26 -6 -34 -21 -8 -16 -13 -19 -16 -10 -8 23 15 48 44 48 16
0 28 -4 28 -10z m3616 -62 c4 -6 -1 -17 -11 -24 -10 -7 -15 -19 -13 -26 4 -8
-3 -13 -18 -13 -20 0 -21 2 -8 16 8 8 14 22 14 31 0 27 23 38 36 16z m44 -38
c0 -5 -9 -14 -19 -20 -25 -13 -38 5 -14 19 23 13 33 14 33 1z m-4025 -32 c14
-6 25 -15 25 -20 0 -5 -5 -6 -12 -2 -8 5 -9 2 -4 -11 4 -10 0 -28 -9 -41 -12
-18 -12 -24 -3 -24 14 -1 -20 -30 -34 -30 -14 0 -8 27 12 53 26 33 25 61 -2
75 -31 14 -6 15 27 0z m215 -3 c0 -12 -44 -65 -53 -65 -6 0 -3 8 6 18 10 10
17 26 17 35 0 9 7 17 15 17 8 0 15 -2 15 -5z m-116 -61 c19 -7 21 -24 3 -24
-7 0 -23 -17 -35 -37 -24 -43 -30 -28 -7 18 9 16 13 34 10 39 -7 11 6 13 29 4z
m-349 -145 c15 -14 -7 -10 -35 7 l-25 15 25 -7 c14 -3 29 -10 35 -15z m64 -58
c22 -14 22 -43 0 -59 -10 -7 -19 -19 -19 -25 0 -7 -5 -19 -10 -27 -9 -13 -11
-13 -20 0 -15 24 -12 40 7 33 13 -5 15 -2 9 12 -4 11 0 25 11 37 15 17 15 20
3 28 -8 6 -10 10 -5 10 6 0 16 -4 24 -9z m137 -82 c4 -8 0 -9 -15 -4 -15 5
-21 2 -21 -9 0 -9 7 -16 15 -16 14 0 14 -3 0 -30 -18 -35 -25 -39 -18 -10 4
16 2 19 -11 14 -9 -3 -16 -11 -16 -16 0 -6 -10 -19 -22 -30 -20 -17 -23 -17
-31 -3 -6 11 -4 22 7 34 9 10 16 22 16 28 0 18 -28 23 -34 6 -4 -9 -9 -13 -13
-10 -13 14 18 34 44 29 21 -4 25 -2 20 11 -4 11 -2 14 9 10 23 -9 16 9 -13 35
-28 23 -28 23 24 -2 28 -14 55 -31 59 -37z m-236 -84 c0 -5 -13 4 -30 20 -16
16 -30 32 -30 37 0 4 14 -5 30 -20 17 -16 30 -33 30 -37z m274 57 c2 -4 -4
-13 -15 -20 -21 -13 -22 -12 -13 12 7 17 20 21 28 8z m-234 -10 c0 -13 -12
-22 -22 -16 -10 6 -1 24 13 24 5 0 9 -4 9 -8z m-1705 -82 c8 0 35 -19 62 -42
108 -94 253 -183 355 -218 84 -29 176 -50 221 -50 26 0 36 -4 31 -11 -5 -8
-38 -10 -109 -6 -162 9 -352 83 -445 173 -19 19 -50 48 -69 65 -25 22 -31 33
-22 39 9 5 0 16 -30 35 -24 15 -36 24 -26 21 10 -3 25 -6 32 -6z m1805 -75
c-1 -5 -12 3 -25 18 -14 15 -25 33 -25 40 1 7 12 -1 25 -18 14 -16 25 -34 25
-40z m-240 23 c0 -5 -5 -6 -12 -2 -6 4 -8 3 -4 -4 9 -14 -11 -55 -35 -70 -26
-16 -25 2 1 35 21 28 26 53 10 53 -5 0 -10 4 -10 10 0 6 10 5 25 -2 14 -6 25
-15 25 -20z m70 -48 c0 -5 -12 -17 -26 -26 -19 -13 -22 -19 -12 -25 10 -7 9
-9 -4 -9 -23 0 -24 36 -2 44 10 4 13 13 9 27 -6 18 -5 20 14 10 12 -7 21 -16
21 -21z"/>
<path d="M10377 8413 c-4 -3 -7 -12 -7 -20 0 -17 26 -17 33 1 8 21 -11 35 -26
19z"/>
<path d="M10476 8285 c-3 -9 0 -15 9 -15 8 0 15 7 15 15 0 8 -4 15 -9 15 -5 0
-11 -7 -15 -15z"/>
<path d="M9554 8266 c-3 -8 -4 -23 -2 -33 3 -11 6 -6 9 15 6 34 2 42 -7 18z"/>
<path d="M7505 6904 c46 -52 55 -68 44 -75 -11 -7 -12 -12 -1 -29 11 -18 10
-20 -8 -20 -11 0 -20 7 -20 15 0 8 -4 15 -10 15 -17 0 -44 -51 -50 -94 l-6
-41 -25 55 c-43 91 -45 178 -6 202 9 5 9 10 0 19 -16 16 -58 -28 -72 -76 -17
-62 14 -155 105 -316 40 -72 69 -217 55 -278 -5 -23 -8 -41 -7 -41 0 -1 46 -9
101 -19 68 -13 104 -15 113 -9 11 10 16 4 13 -14 -3 -22 43 -2 52 22 4 11 6
11 6 -4 1 -12 6 -16 17 -12 9 3 22 6 30 6 9 0 12 5 9 11 -4 6 0 9 11 7 27 -4
29 62 3 69 -11 3 -19 10 -19 17 0 6 -5 3 -11 -6 -6 -12 -22 -18 -42 -18 -30 1
-31 1 -13 15 11 8 15 15 9 15 -6 0 -14 33 -18 75 -4 41 -11 75 -16 75 -18 0
-9 15 16 27 l25 11 1 -66 1 -67 10 45 c5 25 9 52 9 60 -1 8 -1 75 0 148 l0
132 -43 0 c-24 0 -49 5 -55 11 -7 7 -17 8 -29 2 -14 -7 -23 -5 -36 8 -9 9 -14
19 -12 22 7 7 -106 126 -141 147 -53 33 -51 24 10 -46z m105 -124 c0 -11 -2
-20 -5 -20 -2 0 -9 9 -15 20 -9 16 -8 20 5 20 8 0 15 -9 15 -20z m118 -385
c-2 -61 -7 -105 -13 -105 -5 -1 -15 39 -21 87 -9 75 -9 91 4 106 28 32 33 18
30 -88z m-65 23 c-1 -40 -2 -83 -3 -95 0 -13 -5 -23 -10 -23 -6 0 -8 15 -4 40
7 40 -10 100 -27 100 -5 0 -9 11 -9 25 0 21 5 25 28 25 l27 0 -2 -72z"/>
<path d="M7563 6151 c-1 -11 11 -52 27 -93 25 -63 32 -73 51 -70 13 1 26 -3
30 -10 4 -7 11 -10 14 -6 4 3 -7 41 -24 83 -17 42 -31 83 -31 91 0 20 -18 17
-23 -3 -4 -15 -6 -15 -12 5 -9 27 -30 29 -32 3z"/>
<path d="M7715 6132 c4 -13 2 -22 -4 -22 -17 0 -13 -36 7 -58 16 -20 20 -20
67 -8 28 7 104 16 171 20 97 5 142 3 239 -14 65 -11 120 -18 123 -15 7 7 -14
13 -113 29 -252 44 -360 57 -363 47 -5 -16 -52 -13 -52 3 0 8 -11 17 -24 20
-13 3 -32 9 -41 12 -14 6 -16 3 -10 -14z"/>
<path d="M7790 5989 c0 -78 53 -131 114 -115 14 3 28 1 31 -4 4 -6 15 -8 26
-5 11 4 19 2 19 -5 0 -15 49 -4 71 16 21 19 34 93 19 108 -9 9 -213 45 -262
46 -14 0 -18 -9 -18 -41z m217 -45 c29 -3 51 -10 48 -14 -3 -4 -26 -3 -52 1
-34 7 -49 6 -52 -2 -2 -8 -6 -8 -11 1 -4 7 -19 13 -34 13 -14 1 -26 6 -26 11
0 5 17 6 38 3 20 -3 61 -9 89 -13z"/>
<path d="M7737 5949 c-6 -21 11 -59 25 -59 5 0 8 -7 8 -15 0 -8 5 -15 10 -15
6 0 10 5 10 10 0 18 20 11 21 -7 0 -10 3 -13 5 -6 3 7 -6 29 -20 50 -14 21
-26 43 -26 50 0 21 -27 14 -33 -8z"/>
<path d="M7450 5945 c0 -8 9 -15 19 -15 11 0 21 -5 23 -10 2 -6 20 -13 40 -16
33 -6 37 -4 35 14 -2 32 -117 58 -117 27z"/>
<path d="M9900 7669 c-74 -3 -138 -7 -142 -8 -6 -1 -48 -68 -48 -77 0 -3 19
-3 43 0 23 3 107 8 187 11 83 4 150 11 158 17 7 6 20 24 28 40 l15 28 -53 -2
c-29 -1 -114 -5 -188 -9z"/>
<path d="M9600 7610 c8 -5 11 -10 5 -11 -13 -1 26 -17 43 -18 10 -1 10 4 2 19
-7 13 -21 20 -38 20 -21 0 -24 -2 -12 -10z"/>
<path d="M9660 7216 c0 -9 7 -16 16 -16 9 0 14 5 12 12 -6 18 -28 21 -28 4z"/>
<path d="M9637 7173 c-11 -11 -8 -20 9 -27 11 -4 15 -2 11 8 -3 8 -1 17 6 20
7 2 6 5 -4 5 -9 1 -19 -2 -22 -6z"/>
<path d="M9352 6198 c2 -12 10 -23 18 -26 12 -4 13 -2 3 9 -20 20 -16 27 20
32 31 4 31 4 -6 5 -34 2 -38 0 -35 -20z"/>
<path d="M9430 6170 c0 -5 12 -10 26 -10 14 0 23 4 19 10 -3 6 -15 10 -26 10
-10 0 -19 -4 -19 -10z"/>
<path d="M9824 5992 c5 -8 76 -4 76 4 0 2 -18 4 -41 4 -22 0 -38 -4 -35 -8z"/>
<path d="M9920 5986 c0 -7 14 -16 32 -20 35 -7 52 0 22 9 -10 4 -27 11 -36 16
-13 7 -18 5 -18 -5z"/>
<path d="M8008 4898 c9 -9 15 -9 24 0 9 9 7 12 -12 12 -19 0 -21 -3 -12 -12z"/>
<path d="M7970 4886 c0 -8 -6 -16 -12 -19 -7 -2 -9 -8 -5 -13 4 -5 12 -3 16 4
4 7 15 10 24 6 20 -7 22 7 5 24 -16 16 -28 15 -28 -2z"/>
<path d="M7886 4802 c-24 -3 -27 -7 -23 -28 3 -18 1 -24 -9 -20 -8 3 -14 1
-14 -4 0 -6 5 -10 12 -10 6 0 26 -11 45 -26 18 -14 33 -24 34 -22 0 2 2 26 5
54 5 56 0 62 -50 56z"/>
<path d="M7848 4689 c-10 -6 -18 -17 -18 -24 0 -19 8 -19 27 0 20 20 13 37 -9
24z"/>
<path d="M7612 4548 c5 -14 56 -33 65 -24 3 3 0 12 -7 21 -15 18 -64 21 -58 3z"/>
<path d="M7818 4503 c-2 -32 -2 -62 0 -66 9 -19 23 13 29 67 5 46 3 56 -10 56
-11 0 -16 -14 -19 -57z"/>
<path d="M9800 5447 c0 -6 9 -23 19 -36 15 -20 21 -22 37 -12 14 9 15 11 2 7
-9 -2 -19 2 -22 10 -3 8 -1 14 5 14 6 0 9 5 7 12 -6 16 -48 21 -48 5z"/>
<path d="M9780 5412 c0 -5 7 -13 16 -16 10 -4 14 -1 12 6 -5 15 -28 23 -28 10z"/>
<path d="M9920 5378 c-30 -4 -76 -10 -102 -13 -40 -5 -47 -9 -45 -26 2 -10 9
-25 16 -32 11 -10 12 -7 7 14 -6 25 -4 27 47 33 28 4 67 9 85 13 30 5 33 3 30
-14 -1 -11 2 -20 7 -20 6 -1 9 3 8 8 -2 5 5 9 15 9 10 0 13 3 6 8 -6 4 -13 12
-15 17 -2 6 -25 7 -59 3z"/>
<path d="M10142 5355 c-1 -14 3 -25 8 -25 6 0 10 11 10 25 0 14 -4 25 -8 25
-4 0 -9 -11 -10 -25z"/>
<path d="M10183 5363 c-21 -8 -15 -22 7 -16 11 3 20 9 20 14 0 10 -8 10 -27 2z"/>
<path d="M3885 4283 c-11 -3 -24 -11 -28 -19 -4 -8 -17 -14 -27 -14 -11 0 -27
-11 -36 -25 -9 -14 -23 -25 -31 -25 -8 0 -11 -4 -8 -10 3 -5 1 -10 -4 -10 -6
0 -11 -4 -11 -9 0 -5 -19 -38 -42 -73 -33 -49 -43 -72 -43 -105 0 -24 -5 -43
-11 -43 -16 0 -46 -189 -43 -277 3 -120 41 -323 60 -323 4 0 9 -13 12 -28 4
-17 16 -33 31 -40 14 -6 26 -16 26 -22 0 -5 7 -10 15 -10 8 0 15 7 15 15 0 10
10 15 28 15 21 0 24 -2 12 -10 -12 -8 -9 -10 13 -10 20 0 27 5 27 19 0 11 5
23 12 27 8 5 9 -5 5 -39 -7 -52 9 -57 30 -9 10 21 9 49 -4 132 -17 112 -26
358 -14 375 4 5 8 35 10 65 2 58 11 75 39 75 11 0 17 8 18 25 1 41 4 50 13 50
5 0 11 -12 14 -28 6 -29 43 -82 57 -82 20 0 40 34 40 66 0 39 -13 70 -41 97
-23 22 -26 59 -4 51 8 -4 17 1 21 10 11 29 38 17 58 -25 22 -48 44 -60 62 -34
16 22 19 121 4 130 -6 4 -8 11 -5 16 4 5 2 9 -2 9 -5 0 -23 14 -41 30 -18 17
-40 30 -48 30 -8 0 -14 4 -14 9 0 19 -117 36 -165 24z m222 -101 c-15 -9 -27
-25 -27 -35 0 -10 -4 -15 -10 -12 -13 8 -13 52 0 57 6 2 22 4 37 5 l27 1 -27
-16z"/>
<path d="M3930 3761 c-16 -39 -5 -82 26 -112 25 -24 26 -24 40 -5 19 26 17 74
-5 111 -24 41 -45 43 -61 6z"/>
<path d="M4220 3694 c-14 -10 -31 -24 -37 -32 -15 -19 -17 -88 -3 -97 6 -3 10
-17 10 -30 0 -24 17 -35 55 -35 13 0 27 -4 30 -10 9 -14 39 -12 84 6 35 14 39
19 39 53 1 66 -22 135 -49 148 -34 18 -100 16 -129 -3z m36 -49 c4 -8 1 -22
-6 -30 -17 -20 -40 -2 -33 25 6 24 31 26 39 5z m-6 -89 c0 -16 -28 -42 -36
-33 -7 6 18 47 28 47 5 0 8 -6 8 -14z"/>
<path d="M3969 3493 c-17 -19 -14 -47 9 -90 22 -43 39 -48 56 -15 11 23 11 34
-1 75 -15 51 -38 62 -64 30z"/>
<path d="M4076 3275 c-27 -27 -20 -80 15 -116 25 -26 33 -29 40 -18 16 23 4
108 -18 131 -19 18 -21 18 -37 3z"/>
<path d="M4222 3148 c-32 -32 1 -134 43 -133 27 0 32 58 8 104 -20 39 -33 47
-51 29z"/>
<path d="M5556 4001 c-3 -5 8 -14 26 -20 42 -15 44 -14 23 9 -19 21 -40 26
-49 11z"/>
<path d="M7312 3843 c-17 -7 -5 -23 18 -23 13 0 17 5 14 15 -6 16 -11 17 -32
8z"/>
<path d="M7515 3339 c-16 -5 -46 -7 -65 -4 -34 5 -34 5 -15 -11 19 -16 19 -16
-12 -10 -39 7 -63 -1 -63 -20 0 -10 -7 -13 -25 -8 -17 4 -25 2 -26 -7 -2 -43
-7 -61 -17 -71 -9 -9 -12 -9 -12 -1 0 7 5 15 10 18 6 3 10 11 10 16 0 6 -4 7
-10 4 -5 -3 -10 0 -10 7 0 7 -7 3 -15 -9 -9 -12 -12 -29 -8 -40 6 -15 5 -16
-9 -5 -12 10 -18 10 -23 1 -4 -6 -1 -15 6 -20 13 -8 5 -13 -14 -10 -4 1 -13
-12 -20 -27 -7 -18 -18 -27 -26 -24 -10 3 -12 0 -8 -12 4 -10 1 -16 -8 -16 -8
0 -15 -8 -15 -18 0 -11 -9 -29 -20 -42 -11 -13 -20 -31 -20 -41 0 -10 -4 -21
-10 -24 -5 -3 -10 -16 -10 -29 0 -12 -4 -26 -9 -31 -9 -11 -40 -192 -40 -242
-1 -18 -1 -39 -2 -45 -3 -40 14 -180 27 -232 22 -87 62 -190 90 -231 13 -20
22 -40 19 -45 -3 -5 3 -15 12 -22 33 -24 84 -89 78 -99 -4 -5 1 -9 9 -9 9 0
21 -9 28 -20 7 -11 18 -20 25 -20 16 0 17 -17 1 -22 -9 -3 -9 -6 0 -12 7 -4
12 -2 12 3 0 25 29 9 35 -19 4 -16 13 -30 20 -30 9 0 12 6 9 15 -10 25 5 17
20 -12 14 -25 15 -26 16 -7 0 12 -7 37 -15 56 -19 46 -4 68 48 71 20 1 37 5
37 8 0 13 -47 49 -55 42 -4 -5 -5 -2 -1 5 4 7 -8 40 -28 78 -20 35 -36 71 -36
79 0 8 -7 18 -15 23 -9 4 -17 23 -20 42 -2 18 -10 37 -17 41 -7 4 -10 11 -6
14 3 4 18 -1 32 -10 26 -17 56 -15 56 5 0 6 -10 8 -25 4 -21 -5 -25 -3 -25 15
0 12 5 21 10 21 6 0 10 7 10 16 0 9 -7 14 -17 12 -11 -2 -18 -12 -17 -25 0
-12 -3 -20 -8 -17 -10 7 -1 63 14 81 6 7 4 15 -8 21 -11 6 -14 16 -9 31 6 21
25 30 25 11 0 -15 61 -50 87 -50 32 0 63 45 63 92 0 32 -7 47 -34 74 -45 45
-79 45 -106 2 -11 -18 -20 -45 -20 -60 0 -16 -5 -28 -11 -28 -8 0 -9 14 -4 48
4 26 8 56 9 67 2 11 6 31 9 45 4 14 9 42 11 64 6 50 10 52 42 27 92 -73 167
76 80 158 -20 19 -31 22 -60 17 -20 -4 -36 -3 -36 2 0 5 13 12 29 15 16 3 31
13 35 22 3 9 2 13 -3 10 -5 -3 -12 -1 -16 5 -3 5 -2 10 4 10 5 0 13 9 16 20 4
11 10 18 15 15 4 -2 8 13 8 34 1 56 26 108 64 131 18 11 29 20 25 20 -5 0 -1
7 7 16 21 21 20 37 -4 59 -17 15 -20 16 -20 3 0 -18 -46 -51 -62 -46 -6 2 11
25 37 51 47 47 45 53 -10 36z m-115 -248 c0 -5 -7 -14 -15 -21 -12 -10 -15
-10 -15 2 0 8 3 18 7 21 9 10 23 9 23 -2z m-18 -183 c-7 -7 -12 -21 -12 -32 0
-10 -3 -17 -6 -13 -10 10 5 57 18 57 9 0 9 -3 0 -12z m-54 -209 c-2 -6 -8 -10
-13 -10 -5 0 -11 4 -13 10 -2 6 4 11 13 11 9 0 15 -5 13 -11z"/>
<path d="M7923 3333 c-7 -2 -13 -8 -13 -13 0 -14 30 -40 47 -40 11 0 9 6 -8
20 -21 17 -22 21 -9 30 15 10 5 12 -17 3z"/>
<path d="M7620 3295 c-7 -8 -10 -25 -6 -40 5 -19 13 -25 34 -24 26 0 26 1 5 9
-13 5 -23 16 -23 24 0 12 7 14 30 10 34 -7 37 -3 14 20 -19 20 -38 20 -54 1z"/>
<path d="M7804 3295 c-19 -12 -26 -15 -42 -15 -4 0 -14 -16 -21 -35 -19 -53 0
-100 51 -126 41 -21 60 -21 34 0 -18 15 -4 84 24 123 26 35 25 42 -4 56 -18 8
-28 7 -42 -3z"/>
<path d="M8026 3244 c-19 -19 -20 -31 -3 -37 8 -3 4 -11 -12 -24 -23 -19 -23
-20 -7 -50 30 -59 80 -78 125 -47 16 12 20 19 12 27 -17 17 -14 60 4 53 25 -9
17 6 -27 51 -45 46 -67 52 -92 27z"/>
<path d="M7570 3182 c-35 -6 -48 -19 -61 -63 -15 -49 -1 -86 45 -117 27 -18
38 -21 59 -13 93 35 54 209 -43 193z"/>
<path d="M8236 3044 c-8 -22 -8 -26 4 -19 6 3 10 -1 10 -10 0 -11 -5 -15 -14
-12 -38 15 -17 -91 23 -112 20 -11 81 -15 81 -6 0 11 -80 164 -89 169 -5 3
-12 -1 -15 -10z"/>
<path d="M7857 2838 c-2 -18 -4 -34 -2 -36 1 -1 15 4 31 13 16 8 35 15 43 15
11 0 11 3 1 15 -11 14 -14 13 -25 -2 -11 -15 -13 -15 -19 5 -10 32 -23 27 -29
-10z"/>
<path d="M8351 2741 c-21 -38 -8 -151 15 -128 4 4 13 -1 20 -11 22 -30 27 -5
13 74 -14 80 -30 100 -48 65z"/>
<path d="M7851 2709 c-55 -34 -70 -73 -55 -148 5 -23 11 -30 22 -26 8 3 22 0
31 -7 9 -7 6 -1 -6 13 -33 36 -31 91 3 118 21 17 30 19 48 9 11 -6 26 -18 33
-27 19 -25 16 -79 -6 -98 -49 -45 -51 -46 -79 -33 -26 11 -26 11 -9 -7 21 -22
171 -33 190 -14 6 6 19 11 28 11 39 0 66 94 35 120 -8 6 -12 18 -9 26 3 8 1
14 -5 14 -5 0 -15 14 -22 30 -7 17 -18 30 -24 31 -6 0 -24 2 -39 4 -24 3 -27
1 -22 -16 5 -14 2 -17 -9 -13 -8 3 -13 11 -10 18 7 19 -62 15 -95 -5z m71 -26
c10 -9 18 -21 18 -26 0 -6 -8 -3 -18 6 -9 9 -29 20 -42 26 l-25 10 24 0 c14 1
33 -6 43 -16z"/>
<path d="M7842 2638 c-18 -18 -14 -63 7 -82 48 -44 100 17 59 69 -21 27 -47
32 -66 13z"/>
<path d="M8347 2440 c-35 -27 -43 -70 -22 -115 10 -19 23 -35 30 -35 7 0 15
-6 18 -12 9 -27 21 6 32 87 7 47 9 87 7 90 -11 11 -41 4 -65 -15z"/>
<path d="M8037 2415 c-62 -29 -63 -31 -19 -27 25 3 43 12 55 28 10 13 17 24
15 23 -2 0 -25 -11 -51 -24z"/>
<path d="M7510 2327 c-29 -14 -53 -76 -44 -112 7 -27 51 -72 61 -62 3 4 12 2
19 -4 32 -26 74 20 74 82 0 37 -15 68 -44 91 -25 21 -33 22 -66 5z"/>
<path d="M8214 2200 c-25 -10 -45 -59 -38 -96 10 -54 66 -110 78 -79 3 8 14
15 25 15 40 0 64 67 40 111 -10 19 -11 19 -30 -3 l-19 -23 6 29 c6 23 4 27 -7
21 -11 -7 -12 -6 -2 7 22 26 -8 36 -53 18z"/>
<path d="M7705 2114 c-24 -22 -27 -31 -22 -71 6 -55 29 -79 83 -88 40 -6 42
-5 58 29 21 45 14 93 -20 129 -31 34 -63 34 -99 1z"/>
<path d="M7961 2071 c-28 -28 -28 -93 -1 -131 22 -31 84 -47 107 -28 11 9 11
14 -1 27 -9 10 -16 42 -18 81 l-3 65 -32 3 c-22 2 -38 -3 -52 -17z m78 -48 c0
-21 -3 -32 -6 -25 -2 6 -11 12 -19 12 -8 0 -14 5 -14 10 0 6 7 10 16 10 10 0
14 6 10 15 -3 8 -1 15 4 15 6 0 10 -17 9 -37z"/>
<path d="M8570 3272 c0 -12 43 -36 67 -37 12 -1 29 -7 37 -14 8 -7 17 -8 20
-3 6 10 -51 42 -73 42 -6 0 -11 5 -11 10 0 6 -9 10 -20 10 -11 0 -20 -3 -20
-8z"/>
<path d="M6335 6038 c-2 -7 -6 -26 -7 -43 -3 -25 1 -30 27 -36 17 -4 47 -7 68
-8 36 -1 37 0 37 37 0 51 -11 64 -51 60 -30 -3 -35 -7 -40 -38 l-6 -35 -2 38
c-1 35 -17 51 -26 25z"/>
<path d="M6747 5850 c-3 -13 0 -20 9 -20 8 0 14 9 14 20 0 11 -4 20 -9 20 -5
0 -11 -9 -14 -20z"/>
<path d="M3490 4470 c-11 -11 -20 -30 -20 -41 0 -23 -3 -26 53 49 16 20 -11
14 -33 -8z"/>
<path d="M6801 3433 c0 -6 -4 -20 -7 -30 -5 -14 -4 -15 5 -7 7 7 11 20 8 30
-3 11 -5 14 -6 7z"/>
<path d="M6606 2862 c-3 -3 -6 -26 -6 -51 1 -34 7 -54 26 -76 16 -19 22 -22
15 -9 -6 12 -8 24 -6 26 3 3 7 28 9 55 4 44 2 52 -14 56 -10 3 -21 2 -24 -1z"/>
<path d="M6604 2540 c-7 -7 -8 -25 -3 -53 4 -23 8 -45 9 -48 0 -4 7 -10 16
-13 12 -4 15 -2 11 9 -4 8 -2 17 3 20 16 10 11 51 -7 74 -13 16 -21 19 -29 11z"/>
<path d="M3772 2529 c2 -7 16 -22 31 -33 26 -19 28 -19 44 -3 22 21 10 33 -41
43 -30 5 -38 4 -34 -7z"/>
<path d="M6665 2200 c-8 -13 14 -82 29 -92 27 -19 35 -8 20 28 -8 20 -13 39
-10 42 7 6 -13 32 -25 32 -4 0 -11 -5 -14 -10z"/>
<path d="M6797 1893 c-15 -16 -15 -19 5 -52 12 -20 22 -37 24 -39 1 -2 13 0
28 4 l26 6 -19 27 c-10 14 -22 36 -25 49 -9 26 -16 28 -39 5z"/>
</g>
</svg>
