<?xml version="1.0"?>
<svg xmlns="http://www.w3.org/2000/svg" viewBox="0 0 511 511.99898" width="512px" height="512px"><path d="m22.484375 490.015625c29.3125 29.308594 76.757813 29.3125 106.070313 0l106.648437-106.644531 21.210937 21.210937 21.214844-21.210937-42.429687-42.429688 21.332031-21.332031 52.347656 52.351563c-13.125 37.003906-4.910156 79.945312 24.648438 109.503906 31.339844 31.34375 79.289062 39.246094 119.222656 20.257812l19.195312-9.125-64.167968-64.164062 21.214844-21.214844 64.164062 64.164062 9.125-19.191406c19.078125-40.121094 10.9375-88.03125-20.253906-119.222656-29.5625-29.5625-72.503906-37.773438-109.507813-24.648438l-52.347656-52.351562 109.988281-109.988281 25.324219 25.324219 56.570313-113.144532-57.714844-57.71875-113.144532 56.570313 25.324219 25.324219-109.988281 109.992187-52.351562-52.351563c13.125-37 4.910156-79.945312-24.648438-109.503906-31.191406-31.191406-79.105469-39.335937-119.222656-20.257812l-19.191406 9.125 64.164062 64.167968-21.214844 21.214844-64.164062-64.167968-9.128906 19.191406c-19.074219 40.121094-10.933594 88.035156 20.257812 119.226562 29.40625 29.402344 72.28125 37.851563 109.503906 24.648438l52.351563 52.347656-21.328125 21.332031-42.429688-42.429687-21.214844 21.210937 21.214844 21.214844-106.644531 106.644531c-29.308594 29.3125-29.316406 76.757813 0 106.074219zm438.328125-135.832031c16.804688 16.800781 24.207031 40.441406 20.9375 63.367187l-52.757812-52.761719-63.644532 63.644532 52.761719 52.757812c-22.925781 3.269532-46.5625-4.136718-63.367187-20.9375-29.242188-29.246094-29.242188-76.828125 0-106.074218 29.242187-29.242188 76.824218-29.242188 106.070312.003906zm-51.863281-271.847656-17.105469-17.105469 56.570312-28.285157 27.140626 27.140626-28.285157 56.570312-17.105469-17.105469-131.207031 131.207031-21.214843-21.21875zm-356.703125 75.421874c-16.804688-16.804687-24.207032-40.441406-20.9375-63.367187l52.757812 52.761719 63.644532-63.644532-52.761719-52.761718c22.925781-3.269532 46.566406 4.136718 63.367187 20.941406 29.246094 29.242188 29.246094 76.824219 0 106.070312-29.242187 29.242188-76.824218 29.242188-106.070312 0zm127.285156 21.214844c3.601562-3.601562 6.878906-7.40625 9.847656-11.371094l155.515625 155.519532c-3.960937 2.96875-7.765625 6.246094-11.367187 9.847656-3.601563 3.601562-6.878906 7.402344-9.847656 11.367188l-155.515626-155.515626c3.964844-2.96875 7.765626-6.246093 11.367188-9.847656zm34.570312 98.210938 21.214844 21.214844-21.328125 21.328124-21.214843-21.214843zm-170.402343 127.972656 106.644531-106.644531 63.644531 63.644531-106.648437 106.644531c-17.582032 17.585938-46.050782 17.589844-63.640625 0-17.585938-17.585937-17.589844-46.054687 0-63.644531zm0 0" fill="#006DF0"/><path d="m150.34375 340.9375 21.214844 21.214844-96.035156 96.035156-21.214844-21.210938zm0 0" fill="#006DF0"/></svg>
