<svg xmlns="http://www.w3.org/2000/svg" width="150" height="184" viewBox="0 0 150 184">
  <path fill-rule="evenodd" d="M636.110352,406.856169 C636.233577,404.674766 637.532847,402.732782 639.502176,401.786501 L707.656602,369.037655 C709.299647,368.248156 711.212504,368.248418 712.855333,369.038366 L780.916053,401.76512 C782.908014,402.722948 784.212062,404.698373 784.310049,406.906481 C785.969683,444.306455 784.635208,470.036354 780.306622,484.096177 C771.784943,511.775723 749.226713,534.019009 712.631931,550.826034 C711.116115,551.522209 709.378907,551.555949 707.837202,550.919155 C670.427874,535.467457 647.461003,513.19313 638.936588,484.096177 C634.918401,470.380628 633.976322,444.633959 636.110352,406.856169 Z M714.949747,427.099636 C712.216077,424.365966 707.783923,424.365966 705.050253,427.099636 L676.765981,455.383907 C674.032311,458.117577 674.032311,462.549732 676.765981,465.283402 L705.050253,493.567673 C707.783923,496.301343 712.216077,496.301343 714.949747,493.567673 L743.234019,465.283402 C745.967689,462.549732 745.967689,458.117577 743.234019,455.383907 L714.949747,427.099636 Z" transform="translate(-635 -368)"/>
</svg>
