<?xml version="1.0" encoding="iso-8859-1"?>
<!-- Generator: Adobe Illustrator 19.0.0, SVG Export Plug-In . SVG Version: 6.00 Build 0)  -->
<svg xmlns="http://www.w3.org/2000/svg" xmlns:xlink="http://www.w3.org/1999/xlink" version="1.1" id="Capa_1" x="0px" y="0px" viewBox="0 0 480 480" style="enable-background:new 0 0 480 480;" xml:space="preserve" width="512px" height="512px">
<g>
	<g>
		<path d="M472,304H328V168c0-4.418-3.582-8-8-8h-40v-8c0-2.122-0.844-4.156-2.344-5.656L264,132.688v-17.376l4.32-4.32    C303.737,99.74,327.848,66.921,328,29.76V24c0-4.418-3.582-8-8-8h-16.256c0.08-1.752,0.256-3.488,0.256-5.256V8    c0-4.418-3.582-8-8-8H184c-4.418,0-8,3.582-8,8v2.744c0,1.768,0.176,3.504,0.256,5.256H160c-4.418,0-8,3.582-8,8v5.76    c0.152,37.161,24.263,69.98,59.68,81.232l4.32,4.32v17.376l-13.656,13.656c-1.5,1.5-2.344,3.534-2.344,5.656v8h-40    c-4.418,0-8,3.582-8,8v136H8c-4.418,0-8,3.582-8,8v160c0,4.418,3.582,8,8,8h464c4.418,0,8-3.582,8-8V312    C480,307.582,476.418,304,472,304z M152,464H16V320h136V464z M302.016,32H312c-0.952,26.059-16.391,49.399-40,60.472v-1.4    C287.526,74.711,297.955,54.186,302.016,32z M208,92.472C184.391,81.399,168.952,58.059,168,32h9.952    c4.07,22.19,14.511,42.715,30.048,59.072V92.472z M192.136,16h95.728c-1.169,23.898-10.832,46.593-27.248,64h-41.232    C202.968,62.594,193.305,39.898,192.136,16z M229.656,106.344L224,100.688V96h32v4.688l-5.656,5.656    c-1.5,1.5-2.344,3.534-2.344,5.656v16h-16v-16C232,109.878,231.156,107.844,229.656,106.344z M216,155.312L227.312,144h25.376    L264,155.312V160h-48V155.312z M312,464H168V312V176h144V464z M464,464H328V320h136V464z" fill="#006DF0"/>
	</g>
</g>
<g>
</g>
<g>
</g>
<g>
</g>
<g>
</g>
<g>
</g>
<g>
</g>
<g>
</g>
<g>
</g>
<g>
</g>
<g>
</g>
<g>
</g>
<g>
</g>
<g>
</g>
<g>
</g>
<g>
</g>
</svg>
